<?xml version="1.0" encoding="UTF-8" standalone="no"?>
<!-- Created with Inkscape (http://www.inkscape.org/) -->

<svg
   xmlns:dc="http://purl.org/dc/elements/1.1/"
   xmlns:cc="http://creativecommons.org/ns#"
   xmlns:rdf="http://www.w3.org/1999/02/22-rdf-syntax-ns#"
   xmlns:svg="http://www.w3.org/2000/svg"
   xmlns="http://www.w3.org/2000/svg"
   xmlns:xlink="http://www.w3.org/1999/xlink"
   xmlns:sodipodi="http://sodipodi.sourceforge.net/DTD/sodipodi-0.dtd"
   xmlns:inkscape="http://www.inkscape.org/namespaces/inkscape"
   width="16.775946mm"
   height="14.60475mm"
   viewBox="0 0 16.775946 14.60475"
   version="1.1"
   id="svg8"
   inkscape:version="0.92.3 (d244b95, 2018-08-02)"
   sodipodi:docname="credits.svg"
   inkscape:export-filename="/home/rf/Documents/Webdesign-2018/oslo-trail-klubb/graphic-resources/icons/credits.png"
   inkscape:export-xdpi="96"
   inkscape:export-ydpi="96">
  <defs
     id="defs2">
    <linearGradient
       inkscape:collect="always"
       id="linearGradient853">
      <stop
         id="stop851"
         offset="0"
         style="stop-color:#ea5455;stop-opacity:1" />
      <stop
         id="stop849"
         offset="1"
         style="stop-color:#f07b3f;stop-opacity:1" />
    </linearGradient>
    <linearGradient
       inkscape:collect="always"
       xlink:href="#linearGradient853"
       id="linearGradient855"
       x1="55.819473"
       y1="22.63018"
       x2="-0.24399365"
       y2="22.63018"
       gradientUnits="userSpaceOnUse" />
  </defs>
  <sodipodi:namedview
     id="base"
     pagecolor="#ffffff"
     bordercolor="#666666"
     borderopacity="1.0"
     inkscape:pageopacity="0.0"
     inkscape:pageshadow="2"
     inkscape:zoom="1.979899"
     inkscape:cx="1.9669837"
     inkscape:cy="-7.632634"
     inkscape:document-units="mm"
     inkscape:current-layer="g847"
     showgrid="false"
     fit-margin-top="1"
     fit-margin-left="1"
     fit-margin-right="1"
     fit-margin-bottom="1"
     inkscape:window-width="1280"
     inkscape:window-height="996"
     inkscape:window-x="1366"
     inkscape:window-y="0"
     inkscape:window-maximized="1" />
  <metadata
     id="metadata5">
    <rdf:RDF>
      <cc:Work
         rdf:about="">
        <dc:format>image/svg+xml</dc:format>
        <dc:type
           rdf:resource="http://purl.org/dc/dcmitype/StillImage" />
        <dc:title></dc:title>
      </cc:Work>
    </rdf:RDF>
  </metadata>
  <g
     inkscape:label="Layer 1"
     inkscape:groupmode="layer"
     id="layer1"
     transform="translate(-76.278694,-82.807383)">
    <g
       id="g847"
       transform="matrix(0.26458333,0,0,0.26458333,77.278694,83.807383)">
      <g
         id="g825"
         style="fill-opacity:1;fill:url(#linearGradient855)">
        <path
           id="path815"
           d="m 13,11.64 c -2.76,0 -5,2.24 -5,5 0,0.55 0.45,1 1,1 0.55,0 1,-0.45 1,-1 0,-1.65 1.35,-3 3,-3 1.65,0 3,1.35 3,3 0,0.55 0.45,1 1,1 0.55,0 1,-0.45 1,-1 0,-2.76 -2.24,-5 -5,-5 z"
           inkscape:connector-curvature="0"
           style="fill-opacity:1;fill:url(#linearGradient855)" />
        <path
           id="path817"
           d="m 36,16.64 c 0,-2.76 -2.24,-5 -5,-5 -2.76,0 -5,2.24 -5,5 0,0.55 0.45,1 1,1 0.55,0 1,-0.45 1,-1 0,-1.65 1.35,-3 3,-3 1.65,0 3,1.35 3,3 0,0.55 0.45,1 1,1 0.55,0 1,-0.45 1,-1 z"
           inkscape:connector-curvature="0"
           style="fill-opacity:1;fill:url(#linearGradient855)" />
        <path
           id="path819"
           d="M 33.25,26.83 C 33.25,26.5 33.08,26.18 32.8,26 l -4.25,-2.83 c -0.46,-0.31 -1.08,-0.18 -1.39,0.28 -0.31,0.46 -0.18,1.08 0.28,1.39 l 3,2 -3,2 c -0.28,0.19 -0.45,0.5 -0.45,0.83 0,0.33 0.17,0.65 0.45,0.83 l 3,2 -3,2 c -0.46,0.31 -0.58,0.93 -0.28,1.39 0.19,0.29 0.51,0.45 0.83,0.45 0.19,0 0.38,-0.05 0.55,-0.17 l 4.25,-2.83 c 0.28,-0.19 0.45,-0.5 0.45,-0.83 0,-0.33 -0.17,-0.65 -0.45,-0.83 l -3,-2 3,-2 c 0.29,-0.2 0.46,-0.51 0.46,-0.85 z"
           inkscape:connector-curvature="0"
           style="fill-opacity:1;fill:url(#linearGradient855)" />
        <path
           id="path821"
           d="M 55.82,39.71 C 55.61,37.59 53.97,36 51.99,36 51.01,36 50.09,36.37 49.4,37.01 48.72,36.37 47.83,36 46.85,36 c -1.98,0 -3.62,1.59 -3.83,3.71 -0.03,0.2 -0.07,0.7 0.11,1.44 0.27,1.12 0.9,2.13 1.81,2.92 l 3.79,3.32 c 0.19,0.17 0.42,0.25 0.66,0.25 0.23,0 0.46,-0.08 0.65,-0.24 l 3.86,-3.32 c 0.91,-0.8 1.54,-1.81 1.81,-2.93 0.18,-0.74 0.14,-1.24 0.11,-1.44 z m -2.06,0.96 c -0.17,0.71 -0.58,1.37 -1.18,1.89 l -3.19,2.75 -3.13,-2.75 C 45.66,42.04 45.25,41.38 45.08,40.67 44.98,40.26 45,40.03 45,40.03 c 0,0 0,0 0,0 0.01,-0.03 0.01,-0.07 0.02,-0.1 0.08,-0.96 0.74,-1.93 1.83,-1.93 0.71,0 1.32,0.41 1.62,1.1 0.16,0.36 0.52,0.6 0.92,0.6 0.4,0 0.76,-0.24 0.92,-0.6 0.29,-0.67 0.95,-1.1 1.68,-1.1 1.09,0 1.75,0.97 1.85,2 0,0 0.03,0.24 -0.08,0.67 z"
           inkscape:connector-curvature="0"
           style="fill-opacity:1;fill:url(#linearGradient855)" />
        <path
           id="path823"
           d="m 47.86,30.51 c 0.18,-0.74 0.14,-1.24 0.11,-1.44 -0.21,-2.12 -1.85,-3.71 -3.83,-3.71 -0.15,0 -0.29,0.02 -0.43,0.04 C 43.9,24.26 44,23.11 44,22 44,9.87 34.13,0 22,0 9.87,0 0,9.87 0,22 c 0,12.13 9.87,22 22,22 6.82,0 13.23,-3.18 17.39,-8.56 l 1.49,1.31 c 0.19,0.17 0.42,0.25 0.66,0.25 0.23,0 0.46,-0.08 0.65,-0.24 l 3.85,-3.32 c 0.92,-0.8 1.55,-1.81 1.82,-2.93 z m -9.97,3.62 C 34.11,39.07 28.24,42 22,42 10.97,42 2,33.03 2,22 2,10.97 10.97,2 22,2 c 11.03,0 20,8.97 20,20 0,1.41 -0.17,2.86 -0.49,4.33 -0.09,-0.08 -0.2,-0.15 -0.29,-0.22 -0.08,-0.06 -0.15,-0.12 -0.23,-0.17 -0.12,-0.08 -0.25,-0.13 -0.38,-0.19 -0.08,-0.04 -0.15,-0.08 -0.23,-0.12 -0.15,-0.06 -0.3,-0.09 -0.45,-0.13 -0.07,-0.02 -0.14,-0.05 -0.21,-0.06 -0.23,-0.04 -0.46,-0.07 -0.7,-0.07 -1.98,0 -3.62,1.59 -3.83,3.71 -0.01,0.05 -0.02,0.12 -0.02,0.21 -0.01,0.26 0,0.68 0.13,1.23 0.27,1.12 0.9,2.13 1.81,2.92 z m 8.03,-4.09 c -0.17,0.71 -0.58,1.37 -1.18,1.89 l -3.19,2.75 -3.13,-2.75 c -0.2,-0.17 -0.36,-0.36 -0.52,-0.56 -0.32,-0.4 -0.55,-0.85 -0.67,-1.34 -0.07,-0.3 -0.08,-0.51 -0.08,-0.6 0,-0.03 0,-0.04 0,-0.04 0,0 0,0 0,0 0.01,-0.03 0.01,-0.07 0.01,-0.1 0.09,-0.96 0.75,-1.93 1.84,-1.93 0.71,0 1.32,0.41 1.62,1.1 0.16,0.36 0.52,0.6 0.92,0.6 0.4,0 0.76,-0.24 0.92,-0.6 0.06,-0.15 0.15,-0.28 0.25,-0.4 0.06,-0.07 0.12,-0.13 0.19,-0.19 0.33,-0.31 0.77,-0.51 1.24,-0.51 1.09,0 1.75,0.97 1.85,2 0.01,0.01 0.03,0.24 -0.07,0.68 z"
           inkscape:connector-curvature="0"
           style="fill-opacity:1;fill:url(#linearGradient855)" />
      </g>
    </g>
  </g>
</svg>
