<?xml version="1.0" encoding="UTF-8" standalone="no"?>
<!-- Created with Inkscape (http://www.inkscape.org/) -->

<svg
   xmlns:dc="http://purl.org/dc/elements/1.1/"
   xmlns:cc="http://creativecommons.org/ns#"
   xmlns:rdf="http://www.w3.org/1999/02/22-rdf-syntax-ns#"
   xmlns:svg="http://www.w3.org/2000/svg"
   xmlns="http://www.w3.org/2000/svg"
   xmlns:xlink="http://www.w3.org/1999/xlink"
   xmlns:sodipodi="http://sodipodi.sourceforge.net/DTD/sodipodi-0.dtd"
   xmlns:inkscape="http://www.inkscape.org/namespaces/inkscape"
   width="136mm"
   height="136mm"
   viewBox="0 0 136 136"
   version="1.1"
   id="svg902"
   inkscape:version="0.92.3 (d244b95, 2018-08-02)"
   sodipodi:docname="eye.svg">
  <defs
     id="defs896">
    <linearGradient
       inkscape:collect="always"
       id="linearGradient1518">
      <stop
         style="stop-color:#f07b3f;stop-opacity:1"
         offset="0"
         id="stop1514" />
      <stop
         style="stop-color:#ea5455;stop-opacity:1"
         offset="1"
         id="stop1516" />
    </linearGradient>
    <linearGradient
       inkscape:collect="always"
       xlink:href="#linearGradient1518"
       id="linearGradient1520"
       x1="508.57141"
       y1="252.85814"
       x2="0.59163427"
       y2="252.85814"
       gradientUnits="userSpaceOnUse" />
  </defs>
  <sodipodi:namedview
     id="base"
     pagecolor="#ffffff"
     bordercolor="#666666"
     borderopacity="1.0"
     inkscape:pageopacity="0.0"
     inkscape:pageshadow="2"
     inkscape:zoom="0.7"
     inkscape:cx="389.45003"
     inkscape:cy="184.46291"
     inkscape:document-units="mm"
     inkscape:current-layer="g1512"
     showgrid="false"
     fit-margin-top="1"
     fit-margin-left="1"
     fit-margin-right="1"
     fit-margin-bottom="1"
     inkscape:window-width="1366"
     inkscape:window-height="713"
     inkscape:window-x="0"
     inkscape:window-y="27"
     inkscape:window-maximized="1" />
  <metadata
     id="metadata899">
    <rdf:RDF>
      <cc:Work
         rdf:about="">
        <dc:format>image/svg+xml</dc:format>
        <dc:type
           rdf:resource="http://purl.org/dc/dcmitype/StillImage" />
        <dc:title></dc:title>
      </cc:Work>
    </rdf:RDF>
  </metadata>
  <g
     inkscape:label="Layer 1"
     inkscape:groupmode="layer"
     id="layer1"
     transform="translate(-27.548507,-26.101737)">
    <g
       id="g1512"
       transform="matrix(0.26458333,0,0,0.26458333,28.525899,20.068881)">
      <g
         id="g1479"
         transform="translate(0,24.243661)"
         style="fill-opacity:1;fill:url(#linearGradient1520)">
        <path
           id="path1447"
           d="M 460.2,208.1 C 347.6,99.7 164.4,99.7 51.8,208.1 L 2,256 51.8,303.9 c 56.3,54.2 130.2,81.3 204.2,81.3 73.9,0 147.9,-27.1 204.2,-81.3 L 510,256 Z m -12,83.4 c -106,102.1 -278.5,102.1 -384.5,0 L 26.9,256 63.8,220.5 c 106,-102.1 278.5,-102.1 384.5,0 l 36.9,35.5 z"
           inkscape:connector-curvature="0"
           style="fill-opacity:1;fill:url(#linearGradient1520)" />
        <path
           id="path1449"
           d="m 256,161.1 c -19.9,0 -38.9,6.2 -55.1,17.8 -1.8,-0.2 -3.5,-0.5 -5.3,-0.5 -23.8,0 -43.1,19.4 -43.1,43.1 0,9.9 3.5,18.9 9.1,26.2 -0.3,2.9 -0.5,5.7 -0.5,8.3 0,52.3 42.6,94.9 94.9,94.9 52.3,0 94.9,-42.6 94.9,-94.9 0,-52.3 -42.6,-94.9 -94.9,-94.9 z m -38.1,97.1 c 0.2,-0.1 0.5,-0.2 0.7,-0.4 1.1,-0.7 2.2,-1.6 3.3,-2.4 0.9,-0.7 1.8,-1.4 2.6,-2.2 0.9,-0.8 1.8,-1.7 2.6,-2.5 1,-1.1 1.9,-2.2 2.8,-3.4 0.6,-0.7 1.2,-1.4 1.7,-2.2 1.3,-1.9 2.4,-4 3.3,-6.1 0.3,-0.8 0.6,-1.6 0.9,-2.4 0.6,-1.7 1.2,-3.3 1.6,-5.1 0.2,-0.8 0.4,-1.6 0.5,-2.4 0.5,-2.5 0.8,-5.1 0.8,-7.7 0,-1.6 -0.1,-3.3 -0.3,-4.9 5.5,-2.5 11.5,-3.8 17.5,-3.8 23.8,0 43.1,19.4 43.1,43.1 0,23.8 -19.4,43.1 -43.1,43.1 -22.2,0 -40.5,-16.8 -42.9,-38.3 1.8,-0.5 3.4,-1.4 4.9,-2.4 z m -22.3,-62.6 c 1.6,0 3.3,0.2 4.8,0.5 l 0.9,0.2 c 2.1,0.5 4.1,1.3 6,2.2 0.8,0.4 1.7,0.8 2.5,1.3 0.4,0.3 0.8,0.6 1.2,0.9 0.9,0.7 1.8,1.4 2.6,2.2 0.3,0.3 0.6,0.6 0.8,0.9 0.8,0.9 1.6,1.8 2.3,2.8 0.2,0.3 0.5,0.7 0.7,1 0.6,1 1.2,2 1.7,3.1 0.2,0.4 0.4,0.8 0.5,1.2 0.1,0.4 0.2,0.8 0.4,1.1 l 0.4,1.4 c 0.3,1.2 0.6,2.2 0.7,3.2 0.2,1.2 0.4,2.5 0.4,3.8 0,1.6 -0.2,3.2 -0.5,4.8 -0.1,0.6 -0.3,1.2 -0.5,1.8 -0.2,0.9 -0.5,1.8 -0.8,2.6 -0.3,0.7 -0.6,1.4 -0.9,2.1 -0.3,0.6 -0.6,1.2 -1,1.8 -0.5,0.8 -0.9,1.5 -1.5,2.2 -0.3,0.4 -0.6,0.7 -0.9,1.1 -3.4,4 -7.9,7.1 -13.3,8.5 l -1.1,0.4 c -1.7,0.4 -3.5,0.6 -5.4,0.6 -1.8,0 -3.5,-0.2 -5.2,-0.5 -0.1,0 -0.1,0 -0.2,-0.1 -5.1,-1.1 -9.7,-3.7 -13.4,-7.6 l -0.1,-0.2 c -4.3,-4.6 -6.9,-10.7 -6.9,-17.5 -0.1,-14.2 11.5,-25.8 25.8,-25.8 z m 60.4,138 c -41.1,0 -74.8,-32.1 -77.5,-72.6 0,0 0.1,0 0.1,0 1.9,0.8 4,1.4 6,1.9 0.7,0.2 1.4,0.5 2.2,0.7 2.8,0.6 5.7,0.9 8.7,0.9 0.2,0 0.4,-0.1 0.7,-0.1 4.2,29.2 29.3,51.8 59.7,51.8 33.3,0 60.4,-27.1 60.4,-60.4 0,-33.3 -27.1,-60.4 -60.4,-60.4 -7.9,0 -15.6,1.6 -22.9,4.6 -1.9,-3.4 -4.3,-6.5 -7,-9.2 0,0 0,0 -0.1,-0.1 -1.6,-1.5 -3.2,-3 -5,-4.3 10.8,-5.5 22.6,-8.3 34.9,-8.3 42.8,0 77.6,34.8 77.6,77.6 0,42.8 -34.6,77.9 -77.4,77.9 z"
           inkscape:connector-curvature="0"
           style="fill-opacity:1;fill:url(#linearGradient1520)" />
        <rect
           id="rect1451"
           height="17.299999"
           width="17.299999"
           transform="matrix(0.4999,0.8661,-0.8661,0.4999,138.3479,-86.2341)"
           y="68.099998"
           x="135.2"
           style="fill-opacity:1;fill:url(#linearGradient1520)" />
        <rect
           id="rect1453"
           height="17.299999"
           width="17.299999"
           transform="matrix(-0.4999,-0.8661,0.8661,-0.4999,149.3143,956.8384)"
           y="426.70001"
           x="342.29999"
           style="fill-opacity:1;fill:url(#linearGradient1520)" />
        <rect
           id="rect1455"
           height="17.299999"
           width="17.299999"
           transform="matrix(0.7071,0.7071,-0.7071,0.7071,107.0618,-39.2927)"
           y="101"
           x="92.300003"
           style="fill-opacity:1;fill:url(#linearGradient1520)" />
        <polygon
           id="polygon1457"
           points="381.6,402.4 393.8,414.6 406,402.4 393.8,390.2 "
           style="fill-opacity:1;fill:url(#linearGradient1520)" />
        <polygon
           id="polygon1459"
           points="88.8,402.4 101,414.6 113.2,402.4 101,390.2 "
           style="fill-opacity:1;fill:url(#linearGradient1520)" />
        <rect
           id="rect1461"
           height="17.299999"
           width="17.299999"
           transform="matrix(0.7071,0.7071,-0.7071,0.7071,192.8276,-246.3497)"
           y="101"
           x="385.20001"
           style="fill-opacity:1;fill:url(#linearGradient1520)" />
        <rect
           id="rect1463"
           height="17.299999"
           width="17.299999"
           transform="matrix(-0.8661,-0.4999,0.4999,-0.8661,50.8022,884.2331)"
           y="426.70001"
           x="135.2"
           style="fill-opacity:1;fill:url(#linearGradient1520)" />
        <rect
           id="rect1465"
           height="17.299999"
           width="17.299999"
           transform="matrix(0.8661,0.4999,-0.4999,0.8661,85.3307,-165.1538)"
           y="68.099998"
           x="342.29999"
           style="fill-opacity:1;fill:url(#linearGradient1520)" />
        <rect
           id="rect1467"
           height="17.299999"
           width="17.299999"
           transform="matrix(-0.9659,-0.2588,0.2588,-0.9659,262.9314,946.6077)"
           y="447.39999"
           x="185.2"
           style="fill-opacity:1;fill:url(#linearGradient1520)" />
        <rect
           id="rect1469"
           height="17.299999"
           width="17.299999"
           transform="matrix(0.9659,0.2588,-0.2588,0.9659,24.75,-75.9913)"
           y="47.400002"
           x="292.29999"
           style="fill-opacity:1;fill:url(#linearGradient1520)" />
        <rect
           id="rect1471"
           height="17.299999"
           width="17.299999"
           y="454.39999"
           x="238.7"
           style="fill-opacity:1;fill:url(#linearGradient1520)" />
        <rect
           id="rect1473"
           height="17.299999"
           width="17.299999"
           y="40.299999"
           x="238.7"
           style="fill-opacity:1;fill:url(#linearGradient1520)" />
        <rect
           id="rect1475"
           height="17.299999"
           width="17.299999"
           transform="matrix(-0.2588,-0.9659,0.9659,-0.2588,-61.5967,864.7255)"
           y="447.39999"
           x="292.29999"
           style="fill-opacity:1;fill:url(#linearGradient1520)" />
        <rect
           id="rect1477"
           height="17.299999"
           width="17.299999"
           transform="matrix(0.2588,0.9659,-0.9659,0.2588,197.7123,-145.6743)"
           y="47.400002"
           x="185.2"
           style="fill-opacity:1;fill:url(#linearGradient1520)" />
      </g>
    </g>
  </g>
</svg>
