<?xml version="1.0" encoding="UTF-8" standalone="no"?>
<!-- Created with Inkscape (http://www.inkscape.org/) -->

<svg
   xmlns:dc="http://purl.org/dc/elements/1.1/"
   xmlns:cc="http://creativecommons.org/ns#"
   xmlns:rdf="http://www.w3.org/1999/02/22-rdf-syntax-ns#"
   xmlns:svg="http://www.w3.org/2000/svg"
   xmlns="http://www.w3.org/2000/svg"
   xmlns:sodipodi="http://sodipodi.sourceforge.net/DTD/sodipodi-0.dtd"
   xmlns:inkscape="http://www.inkscape.org/namespaces/inkscape"
   width="16.552084mm"
   height="15.49385mm"
   viewBox="0 0 16.552084 15.49385"
   version="1.1"
   id="svg8"
   sodipodi:docname="map-layers.svg"
   inkscape:export-filename="/home/rf/Documents/Webdesign-2018/oslo-trail-klubb/graphic-resources/icons/close.png"
   inkscape:export-xdpi="96"
   inkscape:export-ydpi="96"
   inkscape:version="0.92.3 (d244b95, 2018-08-02)">
  <defs
     id="defs2" />
  <sodipodi:namedview
     id="base"
     pagecolor="#ffffff"
     bordercolor="#666666"
     borderopacity="1.0"
     inkscape:pageopacity="0.0"
     inkscape:pageshadow="2"
     inkscape:zoom="2.8"
     inkscape:cx="24.241893"
     inkscape:cy="11.411785"
     inkscape:document-units="mm"
     inkscape:current-layer="g4731"
     showgrid="false"
     fit-margin-top="1"
     fit-margin-left="1"
     fit-margin-right="1"
     fit-margin-bottom="1"
     inkscape:window-width="1280"
     inkscape:window-height="996"
     inkscape:window-x="1366"
     inkscape:window-y="0"
     inkscape:window-maximized="1" />
  <metadata
     id="metadata5">
    <rdf:RDF>
      <cc:Work
         rdf:about="">
        <dc:format>image/svg+xml</dc:format>
        <dc:type
           rdf:resource="http://purl.org/dc/dcmitype/StillImage" />
        <dc:title></dc:title>
      </cc:Work>
    </rdf:RDF>
  </metadata>
  <g
     inkscape:label="Layer 1"
     inkscape:groupmode="layer"
     id="layer1"
     transform="translate(-92.937416,-94.86768)">
    <g
       id="g841"
       transform="matrix(0.26458333,0,0,0.26458333,95.394576,111.55991)">
      <g
         id="g4623"
         transform="translate(4.1945349,-13.473322)">
        <g
           id="g4683"
           transform="translate(-3.4223853,-23.596431)">
          <g
             id="g4731"
             transform="translate(-6.2795269,-22.239088)">
            <path
               id="path4714"
               d="M 54.58,0.19 C 54.32,0 53.98,-0.05 53.68,0.05 L 35.95,5.96 19.23,2.03 c -0.04,-0.01 -0.08,0 -0.12,0 C 19,2.02 18.89,2 18.78,2.02 l -18,4 C 0.33,6.13 0,6.53 0,7 v 43 c 0,0.3 0.14,0.59 0.37,0.78 C 0.55,50.92 0.77,51 1,51 1.07,51 1.15,50.99 1.22,50.98 l 17.81,-3.96 16.8,2.97 C 35.88,50 35.94,50 36,50 c 0.12,0 0.24,-0.02 0.35,-0.07 0,0 0.01,0 0.01,0 l 18,-7 C 54.75,42.78 55,42.41 55,42 V 1 C 55,0.68 54.85,0.38 54.58,0.19 Z M 2,7.8 18,4.25 V 45.2 L 2,48.75 Z M 20,4.26 35,7.79 V 47.81 L 20,45.16 Z M 53,41.32 37,47.54 V 7.72 L 53,2.39 Z"
               inkscape:connector-curvature="0" />
          </g>
        </g>
      </g>
    </g>
  </g>
</svg>
