<?xml version="1.0" encoding="UTF-8" standalone="no"?>
<svg
   xmlns:dc="http://purl.org/dc/elements/1.1/"
   xmlns:cc="http://creativecommons.org/ns#"
   xmlns:rdf="http://www.w3.org/1999/02/22-rdf-syntax-ns#"
   xmlns:svg="http://www.w3.org/2000/svg"
   xmlns="http://www.w3.org/2000/svg"
   xmlns:xlink="http://www.w3.org/1999/xlink"
   xmlns:sodipodi="http://sodipodi.sourceforge.net/DTD/sodipodi-0.dtd"
   xmlns:inkscape="http://www.inkscape.org/namespaces/inkscape"
   width="17mm"
   height="17mm"
   viewBox="0 0 17 17"
   version="1.1"
   id="svg8"
   inkscape:version="0.92.3 (d244b95, 2018-08-02)"
   sodipodi:docname="mountains.svg"
   inkscape:export-filename="/home/rf/Documents/Webdesign-2018/oslo-trail-klubb/oslo-trail/src/images/mountains.png"
   inkscape:export-xdpi="96"
   inkscape:export-ydpi="96">
  <defs
     id="defs2">
    <linearGradient
       inkscape:collect="always"
       id="linearGradient3785">
      <stop
         style="stop-color:#f07b3f;stop-opacity:1"
         offset="0"
         id="stop3781" />
      <stop
         style="stop-color:#ea5455;stop-opacity:1"
         offset="1"
         id="stop3783" />
    </linearGradient>
    <linearGradient
       inkscape:collect="always"
       xlink:href="#linearGradient3785"
       id="linearGradient3787"
       x1="62.420307"
       y1="58.270176"
       x2="0.34652925"
       y2="58.270176"
       gradientUnits="userSpaceOnUse" />
    <linearGradient
       inkscape:collect="always"
       xlink:href="#linearGradient3785"
       id="linearGradient831"
       gradientUnits="userSpaceOnUse"
       x1="62.420307"
       y1="58.270176"
       x2="0.34652925"
       y2="58.270176" />
    <linearGradient
       inkscape:collect="always"
       xlink:href="#linearGradient3785"
       id="linearGradient833"
       gradientUnits="userSpaceOnUse"
       x1="62.420307"
       y1="58.270176"
       x2="0.34652925"
       y2="58.270176" />
    <linearGradient
       inkscape:collect="always"
       xlink:href="#linearGradient3785"
       id="linearGradient835"
       gradientUnits="userSpaceOnUse"
       x1="62.420307"
       y1="58.270176"
       x2="0.34652925"
       y2="58.270176" />
    <linearGradient
       inkscape:collect="always"
       xlink:href="#linearGradient3785"
       id="linearGradient837"
       gradientUnits="userSpaceOnUse"
       x1="62.420307"
       y1="58.270176"
       x2="0.34652925"
       y2="58.270176" />
    <linearGradient
       inkscape:collect="always"
       xlink:href="#linearGradient3785"
       id="linearGradient839"
       gradientUnits="userSpaceOnUse"
       x1="62.420307"
       y1="58.270176"
       x2="0.34652925"
       y2="58.270176" />
    <linearGradient
       inkscape:collect="always"
       xlink:href="#linearGradient3785"
       id="linearGradient841"
       gradientUnits="userSpaceOnUse"
       x1="62.420307"
       y1="58.270176"
       x2="0.34652925"
       y2="58.270176" />
    <linearGradient
       inkscape:collect="always"
       xlink:href="#linearGradient3785"
       id="linearGradient843"
       gradientUnits="userSpaceOnUse"
       x1="62.420307"
       y1="58.270176"
       x2="0.34652925"
       y2="58.270176" />
    <linearGradient
       inkscape:collect="always"
       xlink:href="#linearGradient3785"
       id="linearGradient845"
       gradientUnits="userSpaceOnUse"
       x1="62.420307"
       y1="58.270176"
       x2="0.34652925"
       y2="58.270176" />
    <linearGradient
       inkscape:collect="always"
       xlink:href="#linearGradient3785"
       id="linearGradient847"
       gradientUnits="userSpaceOnUse"
       x1="62.420307"
       y1="58.270176"
       x2="0.34652925"
       y2="58.270176" />
    <linearGradient
       inkscape:collect="always"
       xlink:href="#linearGradient3785"
       id="linearGradient849"
       gradientUnits="userSpaceOnUse"
       x1="62.420307"
       y1="58.270176"
       x2="0.34652925"
       y2="58.270176" />
  </defs>
  <sodipodi:namedview
     id="base"
     pagecolor="#ffffff"
     bordercolor="#666666"
     borderopacity="1.0"
     inkscape:pageopacity="0.0"
     inkscape:pageshadow="2"
     inkscape:zoom="3.959798"
     inkscape:cx="-23.632101"
     inkscape:cy="23.34939"
     inkscape:document-units="mm"
     inkscape:current-layer="g3760"
     showgrid="false"
     fit-margin-top="0.5"
     fit-margin-left="0.5"
     fit-margin-right="0.5"
     fit-margin-bottom="0.5"
     inkscape:window-width="1280"
     inkscape:window-height="996"
     inkscape:window-x="1366"
     inkscape:window-y="0"
     inkscape:window-maximized="1" />
  <metadata
     id="metadata5">
    <rdf:RDF>
      <cc:Work
         rdf:about="">
        <dc:format>image/svg+xml</dc:format>
        <dc:type
           rdf:resource="http://purl.org/dc/dcmitype/StillImage" />
        <dc:title></dc:title>
      </cc:Work>
    </rdf:RDF>
  </metadata>
  <g
     inkscape:label="Layer 1"
     inkscape:groupmode="layer"
     id="layer1"
     transform="translate(-45.918899,-114.13404)">
    <g
       id="g3760"
       transform="matrix(0.26458333,0,0,0.26458333,46.286607,111.55046)">
      <g
         id="g3733"
         transform="translate(0,7.5761442)"
         style="fill:url(#linearGradient3787);fill-opacity:1">
        <path
           id="path3713"
           d="M 60.4,57.5 46.2,27 c -0.5,-1.1 -1.5,-1.7 -2.7,-1.7 -1.2,0 -2.2,0.7 -2.7,1.7 L 38.9,31.1 34.2,21 c -0.5,-1.1 -1.5,-1.7 -2.7,-1.7 -1.2,0 -2.2,0.7 -2.7,1.7 L 20.2,39.7 18.4,36 C 17.9,34.9 16.9,34.3 15.7,34.3 14.5,34.3 13.5,35 13,36 L 3,57.5 H 0.5 v 2 h 62 v -2 z M 38.4,34.7 49,57.5 H 14.1 l 10.7,-23 4.7,-3 4,2.3 3.6,-2.1 1.3,3 c 0,0 0,0 0,0 z M 30.6,21.8 c 0.2,-0.5 0.8,-0.6 0.9,-0.6 0.1,0 0.7,0 0.9,0.6 l 3.7,8 -2.8,1.6 -4,-2.3 -3,2 z m -15.8,15 c 0.2,-0.5 0.8,-0.6 0.9,-0.6 0.1,0 0.7,0 0.9,0.6 l 2.2,4.8 c 0.1,0.3 0.1,0.6 0,0.8 l -7,15 H 5.2 Z M 51.1,57.5 40.1,33.9 C 40,33.6 40,33.3 40.1,33.1 l 2.4,-5.2 c 0.2,-0.5 0.8,-0.6 0.9,-0.6 0.1,0 0.7,0 0.9,0.6 L 58,57.6 h -6.9 z"
           inkscape:connector-curvature="0"
           style="fill:url(#linearGradient831);fill-opacity:1" />
        <path
           id="path3715"
           d="m 14.5,20.5 c 3.3,0 6,-2.7 6,-6 0,-3.3 -2.7,-6 -6,-6 -3.3,0 -6,2.7 -6,6 0,3.3 2.7,6 6,6 z m 0,-10 c 2.2,0 4,1.8 4,4 0,2.2 -1.8,4 -4,4 -2.2,0 -4,-1.8 -4,-4 0,-2.2 1.8,-4 4,-4 z"
           inkscape:connector-curvature="0"
           style="fill:url(#linearGradient833);fill-opacity:1" />
        <rect
           id="rect3717"
           height="3"
           width="2"
           y="3.5"
           x="13.5"
           style="fill:url(#linearGradient835);fill-opacity:1" />
        <rect
           id="rect3719"
           height="3"
           width="2"
           y="22.5"
           x="13.5"
           style="fill:url(#linearGradient837);fill-opacity:1" />
        <rect
           id="rect3721"
           height="2"
           width="3"
           transform="matrix(0.7071,-0.7071,0.7071,0.7071,0.7112,17.2835)"
           y="6.8000002"
           x="19.700001"
           style="fill:url(#linearGradient839);fill-opacity:1" />
        <rect
           id="rect3723"
           height="2"
           width="3"
           transform="matrix(0.7071,-0.7071,0.7071,0.7071,-12.7235,11.7169)"
           y="20.200001"
           x="6.3000002"
           style="fill:url(#linearGradient841);fill-opacity:1" />
        <rect
           id="rect3725"
           height="2"
           width="3"
           y="13.5"
           x="22.5"
           style="fill:url(#linearGradient843);fill-opacity:1" />
        <rect
           id="rect3727"
           height="2"
           width="3"
           y="13.5"
           x="3.5"
           style="fill:url(#linearGradient845);fill-opacity:1" />
        <rect
           id="rect3729"
           height="3"
           width="2"
           transform="matrix(0.707,-0.7072,0.7072,0.707,-8.7888,21.2212)"
           y="19.700001"
           x="20.200001"
           style="fill:url(#linearGradient847);fill-opacity:1" />
        <rect
           id="rect3731"
           height="3"
           width="2"
           transform="matrix(0.707,-0.7072,0.7072,0.707,-3.2241,7.784)"
           y="6.3000002"
           x="6.8000002"
           style="fill:url(#linearGradient849);fill-opacity:1" />
      </g>
    </g>
  </g>
</svg>
