<?xml version="1.0" encoding="UTF-8" standalone="no"?>
<!-- Created with Inkscape (http://www.inkscape.org/) -->

<svg
   xmlns:dc="http://purl.org/dc/elements/1.1/"
   xmlns:cc="http://creativecommons.org/ns#"
   xmlns:rdf="http://www.w3.org/1999/02/22-rdf-syntax-ns#"
   xmlns:svg="http://www.w3.org/2000/svg"
   xmlns="http://www.w3.org/2000/svg"
   xmlns:sodipodi="http://sodipodi.sourceforge.net/DTD/sodipodi-0.dtd"
   xmlns:inkscape="http://www.inkscape.org/namespaces/inkscape"
   width="15.769512mm"
   height="13.114616mm"
   viewBox="0 0 15.769512 13.114616"
   version="1.1"
   id="svg8"
   inkscape:version="0.92.3 (d244b95, 2018-08-02)"
   sodipodi:docname="offline-first.svg"
   inkscape:export-filename="/home/rf/Documents/Webdesign-2018/oslo-trail-klubb/graphic-resources/icons/trails-trials.png"
   inkscape:export-xdpi="96"
   inkscape:export-ydpi="96">
  <defs
     id="defs2">
    <style
       id="style911">.cls-1{fill:none;stroke:#000;stroke-linecap:round;stroke-linejoin:round;stroke-width:2px;}</style>
  </defs>
  <sodipodi:namedview
     id="base"
     pagecolor="#ffffff"
     bordercolor="#666666"
     borderopacity="1.0"
     inkscape:pageopacity="0.0"
     inkscape:pageshadow="2"
     inkscape:zoom="1.979899"
     inkscape:cx="-24.80834"
     inkscape:cy="-109.5926"
     inkscape:document-units="mm"
     inkscape:current-layer="g1191"
     showgrid="false"
     fit-margin-top="1"
     fit-margin-left="1"
     fit-margin-right="1"
     fit-margin-bottom="1"
     inkscape:window-width="1280"
     inkscape:window-height="996"
     inkscape:window-x="1366"
     inkscape:window-y="0"
     inkscape:window-maximized="1" />
  <metadata
     id="metadata5">
    <rdf:RDF>
      <cc:Work
         rdf:about="">
        <dc:format>image/svg+xml</dc:format>
        <dc:type
           rdf:resource="http://purl.org/dc/dcmitype/StillImage" />
        <dc:title></dc:title>
      </cc:Work>
    </rdf:RDF>
  </metadata>
  <g
     inkscape:label="Layer 1"
     inkscape:groupmode="layer"
     id="layer1"
     transform="translate(-81.599387,-44.607707)">
    <g
       id="g838"
       transform="matrix(0.26458333,0,0,0.26458333,78.177366,69.588467)" />
    <g
       id="g890"
       transform="matrix(0.26458333,0,0,0.26458333,72.609998,59.246424)">
      <g
         id="g990"
         transform="translate(25.882738,21.586408)">
        <g
           id="g1067"
           transform="translate(8.0718733,-13.67082)">
          <g
             id="g1132"
             transform="translate(-17.032329,-36.30644)">
            <g
               id="g1191"
               transform="translate(13.875139,-34.157054)">
              <g
                 id="g1169"
                 style="fill:#f07b3f;fill-opacity:0.94117647">
                <g
                   id="g1167"
                   style="fill:#f07b3f;fill-opacity:0.94117647">
                  <path
                     id="path1155"
                     d="m 32,43.009 c -1.336,0 -2.591,0.52 -3.536,1.464 -0.944,0.943 -1.465,2.199 -1.465,3.535 0,1.336 0.52,2.592 1.465,3.536 0.945,0.944 2.2,1.464 3.536,1.464 1.336,0 2.591,-0.52 3.534,-1.464 0.944,-0.944 1.465,-2.2 1.465,-3.536 0,-1.336 -0.521,-2.592 -1.465,-3.535 C 34.591,43.528 33.336,43.009 32,43.009 Z m 2.12,7.121 c -1.133,1.134 -3.109,1.132 -4.242,0 -0.567,-0.567 -0.879,-1.32 -0.879,-2.122 0,-0.801 0.312,-1.555 0.879,-2.121 0.567,-0.566 1.32,-0.878 2.122,-0.878 0.801,0 1.554,0.312 2.12,0.878 0.566,0.566 0.879,1.32 0.879,2.121 0,0.802 -0.312,1.554 -0.879,2.122 z"
                     inkscape:connector-curvature="0"
                     style="fill:#f07b3f;fill-opacity:0.94117647" />
                  <path
                     id="path1157"
                     d="m 32,33.005 c -4.005,0 -7.771,1.562 -10.606,4.396 -0.391,0.391 -0.391,1.023 0,1.414 0.391,0.391 1.023,0.391 1.414,0 2.457,-2.457 5.721,-3.811 9.192,-3.811 3.47,0 6.735,1.354 9.193,3.811 0.195,0.195 0.451,0.293 0.707,0.293 0.256,0 0.512,-0.098 0.707,-0.293 0.391,-0.391 0.391,-1.023 0,-1.414 C 39.771,34.566 36.004,33.005 32,33.005 Z"
                     inkscape:connector-curvature="0"
                     style="fill:#f07b3f;fill-opacity:0.94117647" />
                  <path
                     id="path1159"
                     d="m 32,23.002 c -6.674,0 -12.953,2.602 -17.678,7.328 -0.391,0.391 -0.391,1.023 0,1.414 0.391,0.391 1.023,0.391 1.414,0 4.348,-4.348 10.124,-6.742 16.264,-6.742 6.14,0 11.915,2.394 16.263,6.742 0.195,0.195 0.451,0.293 0.707,0.293 0.256,0 0.512,-0.098 0.707,-0.293 0.391,-0.391 0.391,-1.023 0,-1.414 C 44.952,25.604 38.674,23.002 32,23.002 Z"
                     inkscape:connector-curvature="0"
                     style="fill:#f07b3f;fill-opacity:0.94117647" />
                  <path
                     id="path1161"
                     d="m 41.708,16.455 c 0.537,0.162 1.089,-0.135 1.25,-0.663 0.162,-0.528 -0.135,-1.087 -0.662,-1.25 -12.426,-3.814 -25.853,-0.476 -35.045,8.716 -0.391,0.391 -0.391,1.023 0,1.414 0.195,0.195 0.451,0.293 0.707,0.293 0.256,0 0.512,-0.098 0.707,-0.293 8.667,-8.666 21.328,-11.817 33.043,-8.217 z"
                     inkscape:connector-curvature="0"
                     style="fill:#f07b3f;fill-opacity:0.94117647" />
                  <path
                     id="path1163"
                     d="m 52,11 c -3.859,0 -7,3.14 -7,7 0,3.86 3.141,7 7,7 3.859,0 7,-3.14 7,-7 0,-3.86 -3.141,-7 -7,-7 z m 0,12 c -2.757,0 -5,-2.243 -5,-5 0,-2.757 2.243,-5 5,-5 2.757,0 5,2.243 5,5 0,2.757 -2.243,5 -5,5 z"
                     inkscape:connector-curvature="0"
                     style="fill:#f07b3f;fill-opacity:0.94117647" />
                  <path
                     id="path1165"
                     d="m 54.707,15.293 c -0.391,-0.391 -1.023,-0.391 -1.414,0 L 52,16.586 50.707,15.293 c -0.391,-0.391 -1.023,-0.391 -1.414,0 -0.391,0.391 -0.391,1.023 0,1.414 L 50.586,18 49.293,19.293 c -0.391,0.391 -0.391,1.023 0,1.414 C 49.488,20.902 49.744,21 50,21 c 0.256,0 0.512,-0.098 0.707,-0.293 L 52,19.414 53.293,20.707 C 53.488,20.902 53.744,21 54,21 c 0.256,0 0.512,-0.098 0.707,-0.293 0.391,-0.391 0.391,-1.023 0,-1.414 L 53.414,18 54.707,16.707 c 0.391,-0.391 0.391,-1.023 0,-1.414 z"
                     inkscape:connector-curvature="0"
                     style="fill:#f07b3f;fill-opacity:0.94117647" />
                </g>
              </g>
            </g>
          </g>
        </g>
      </g>
    </g>
  </g>
</svg>
