<?xml version="1.0" encoding="UTF-8" standalone="no"?>
<!-- Created with Inkscape (http://www.inkscape.org/) -->

<svg
   xmlns:dc="http://purl.org/dc/elements/1.1/"
   xmlns:cc="http://creativecommons.org/ns#"
   xmlns:rdf="http://www.w3.org/1999/02/22-rdf-syntax-ns#"
   xmlns:svg="http://www.w3.org/2000/svg"
   xmlns="http://www.w3.org/2000/svg"
   xmlns:sodipodi="http://sodipodi.sourceforge.net/DTD/sodipodi-0.dtd"
   xmlns:inkscape="http://www.inkscape.org/namespaces/inkscape"
   width="14.7mm"
   height="18.404167mm"
   viewBox="0 0 14.7 18.404167"
   version="1.1"
   id="svg8"
   inkscape:version="0.92.3 (d244b95, 2018-08-02)"
   sodipodi:docname="photo-markers.svg"
   inkscape:export-filename="/home/rf/Documents/Webdesign-2018/oslo-trail-klubb/graphic-resources/icons/offline-first.png"
   inkscape:export-xdpi="96"
   inkscape:export-ydpi="96">
  <defs
     id="defs2">
    <style
       id="style911">.cls-1{fill:none;stroke:#000;stroke-linecap:round;stroke-linejoin:round;stroke-width:2px;}</style>
  </defs>
  <sodipodi:namedview
     id="base"
     pagecolor="#ffffff"
     bordercolor="#666666"
     borderopacity="1.0"
     inkscape:pageopacity="0.0"
     inkscape:pageshadow="2"
     inkscape:zoom="1.979899"
     inkscape:cx="-31.040665"
     inkscape:cy="-122.45244"
     inkscape:document-units="mm"
     inkscape:current-layer="g1244"
     showgrid="false"
     fit-margin-top="1"
     fit-margin-left="1"
     fit-margin-right="1"
     fit-margin-bottom="1"
     inkscape:window-width="1280"
     inkscape:window-height="996"
     inkscape:window-x="1366"
     inkscape:window-y="0"
     inkscape:window-maximized="1" />
  <metadata
     id="metadata5">
    <rdf:RDF>
      <cc:Work
         rdf:about="">
        <dc:format>image/svg+xml</dc:format>
        <dc:type
           rdf:resource="http://purl.org/dc/dcmitype/StillImage" />
        <dc:title></dc:title>
      </cc:Work>
    </rdf:RDF>
  </metadata>
  <g
     inkscape:label="Layer 1"
     inkscape:groupmode="layer"
     id="layer1"
     transform="translate(-83.248356,-35.915658)">
    <g
       id="g838"
       transform="matrix(0.26458333,0,0,0.26458333,78.177366,69.588467)" />
    <g
       id="g890"
       transform="matrix(0.26458333,0,0,0.26458333,72.609998,59.246424)">
      <g
         id="g990"
         transform="translate(25.882738,21.586408)">
        <g
           id="g1067"
           transform="translate(8.0718733,-13.67082)">
          <g
             id="g1132"
             transform="translate(-17.032329,-36.30644)">
            <g
               id="g1191"
               transform="translate(13.875139,-34.157054)">
              <g
                 id="g1244"
                 transform="translate(5.6900747,-22.351842)">
                <g
                   id="g1222"
                   style="fill:#f07b3f;fill-opacity:1">
                  <path
                     id="path1212"
                     d="m 50.5,0.5 h -38 c -2.8,0 -5,2.2 -5,5 v 52 c 0,2.8 2.2,5 5,5 h 38 c 2.8,0 5,-2.2 5,-5 v -52 c 0,-2.8 -2.2,-5 -5,-5 z m 3,57 c 0,1.7 -1.3,3 -3,3 h -38 c -1.7,0 -3,-1.3 -3,-3 v -52 c 0,-1.7 1.3,-3 3,-3 h 38 c 1.7,0 3,1.3 3,3 z"
                     inkscape:connector-curvature="0"
                     style="fill:#f07b3f;fill-opacity:1" />
                  <path
                     id="path1214"
                     d="m 12.5,48.5 h 38 v -43 h -38 z m 2,-41 h 34 v 39 h -34 z"
                     inkscape:connector-curvature="0"
                     style="fill:#f07b3f;fill-opacity:1" />
                  <path
                     id="path1216"
                     d="m 27.5,58.5 h 8 v -8 h -8 z m 2,-6 h 4 v 4 h -4 z"
                     inkscape:connector-curvature="0"
                     style="fill:#f07b3f;fill-opacity:1" />
                  <path
                     id="path1218"
                     d="m 31.5,10.5 c -5,0 -9,4 -9,9 0,3.1 3.4,9.8 5.8,14.3 -3.5,0.7 -5.8,2.5 -5.8,4.7 0,2.9 3.9,5 9,5 5.1,0 9,-2.1 9,-5 0,-2.2 -2.3,-4 -5.8,-4.7 2.4,-4.5 5.8,-11.2 5.8,-14.3 0,-5 -4,-9 -9,-9 z m 0,2 c 3.9,0 7,3.1 7,7 0,3 -4.5,11.5 -7,16 -2.5,-4.5 -7,-13 -7,-16 0,-3.9 3.1,-7 7,-7 z m 7,26 c 0,1.4 -3,3 -7,3 -4,0 -7,-1.6 -7,-3 0,-1.1 1.8,-2.4 4.8,-2.8 0.7,1.2 1.2,2 1.3,2.3 l 0.9,1.5 0.9,-1.5 c 0.2,-0.3 0.7,-1.2 1.3,-2.3 3,0.4 4.8,1.7 4.8,2.8 z"
                     inkscape:connector-curvature="0"
                     style="fill:#f07b3f;fill-opacity:1" />
                  <path
                     id="path1220"
                     d="m 36.5,19.5 c 0,-2.8 -2.2,-5 -5,-5 -2.8,0 -5,2.2 -5,5 0,2.8 2.2,5 5,5 2.8,0 5,-2.2 5,-5 z m -8,0 c 0,-1.7 1.3,-3 3,-3 1.7,0 3,1.3 3,3 0,1.7 -1.3,3 -3,3 -1.7,0 -3,-1.3 -3,-3 z"
                     inkscape:connector-curvature="0"
                     style="fill:#f07b3f;fill-opacity:1" />
                </g>
              </g>
            </g>
          </g>
        </g>
      </g>
    </g>
  </g>
</svg>
