<?xml version="1.0" encoding="UTF-8" standalone="no"?>
<!-- Created with Inkscape (http://www.inkscape.org/) -->

<svg
   xmlns:dc="http://purl.org/dc/elements/1.1/"
   xmlns:cc="http://creativecommons.org/ns#"
   xmlns:rdf="http://www.w3.org/1999/02/22-rdf-syntax-ns#"
   xmlns:svg="http://www.w3.org/2000/svg"
   xmlns="http://www.w3.org/2000/svg"
   xmlns:sodipodi="http://sodipodi.sourceforge.net/DTD/sodipodi-0.dtd"
   xmlns:inkscape="http://www.inkscape.org/namespaces/inkscape"
   width="17.742859mm"
   height="17.187082mm"
   viewBox="0 0 17.742859 17.187082"
   version="1.1"
   id="svg8"
   inkscape:version="0.92.3 (d244b95, 2018-08-02)"
   sodipodi:docname="photo-locations.svg"
   inkscape:export-filename="/home/rf/Documents/Webdesign-2018/oslo-trail-klubb/graphic-resources/icons/trails-trials.png"
   inkscape:export-xdpi="96"
   inkscape:export-ydpi="96">
  <defs
     id="defs2">
    <style
       id="style911">.cls-1{fill:none;stroke:#000;stroke-linecap:round;stroke-linejoin:round;stroke-width:2px;}</style>
  </defs>
  <sodipodi:namedview
     id="base"
     pagecolor="#ffffff"
     bordercolor="#666666"
     borderopacity="1.0"
     inkscape:pageopacity="0.0"
     inkscape:pageshadow="2"
     inkscape:zoom="1.979899"
     inkscape:cx="-7.1754498"
     inkscape:cy="-127.4527"
     inkscape:document-units="mm"
     inkscape:current-layer="g1132"
     showgrid="false"
     fit-margin-top="1"
     fit-margin-left="1"
     fit-margin-right="1"
     fit-margin-bottom="1"
     inkscape:window-width="1280"
     inkscape:window-height="996"
     inkscape:window-x="1366"
     inkscape:window-y="0"
     inkscape:window-maximized="1" />
  <metadata
     id="metadata5">
    <rdf:RDF>
      <cc:Work
         rdf:about="">
        <dc:format>image/svg+xml</dc:format>
        <dc:type
           rdf:resource="http://purl.org/dc/dcmitype/StillImage" />
        <dc:title></dc:title>
      </cc:Work>
    </rdf:RDF>
  </metadata>
  <g
     inkscape:label="Layer 1"
     inkscape:groupmode="layer"
     id="layer1"
     transform="translate(-76.934018,-51.845928)">
    <g
       id="g838"
       transform="matrix(0.26458333,0,0,0.26458333,78.177366,69.588467)" />
    <g
       id="g890"
       transform="matrix(0.26458333,0,0,0.26458333,72.609998,59.246424)">
      <g
         id="g990"
         transform="translate(25.882738,21.586408)">
        <g
           id="g1067"
           transform="translate(8.0718733,-13.67082)">
          <g
             id="g1132"
             transform="translate(-17.032329,-36.30644)">
            <g
               id="g1106"
               style="fill:#f07b3f;fill-opacity:0.94117647">
              <g
                 id="g1104"
                 style="fill:#f07b3f;fill-opacity:0.94117647">
                <g
                   id="g1090"
                   style="fill:#f07b3f;fill-opacity:0.94117647">
                  <path
                     id="path1088"
                     d="m 33,4.2 c -16.7,0 -29.8,6 -29.8,13.7 v 16.5 c 0,4.4 4.4,8.4 12,11 0.5,0.2 1,-0.2 1,-0.7 V 32.9 c 0.6,-0.2 1.7,-0.5 3.2,-0.9 v 26.7 c 0,1.3 0.8,2.3 1.9,2.7 0.4,0.2 0.7,0.2 1.2,0.2 h 21 c 1.6,0 2.9,-1.3 2.9,-2.9 0,-10.4 0,-16.9 0,-26.9 1.1,0.3 2.2,0.6 3.3,1 v 11.7 c 0,0.4 0.3,0.8 0.8,0.8 0.1,0 0.2,0 0.2,0 7.6,-2.6 12,-6.6 12,-11 V 17.9 C 62.8,10.2 49.7,4.2 33,4.2 Z M 14.7,43.6 C 8.4,41.3 4.7,37.9 4.7,34.4 V 22.2 c 2.2,3.1 6.4,5.2 10,6.5 v 3.7 z m 13.6,-8.2 c -0.3,-0.3 -0.8,-0.3 -1.1,0 L 21,41.6 V 25 h 23.8 v 15.1 l -4.6,-4.6 c -0.3,-0.3 -0.8,-0.3 -1.1,0 l -5.4,5.4 z M 27.8,37 c 9,9 2.5,2.5 9.3,9.3 0.3,0.3 0.8,0.3 1.1,0 0.3,-0.3 0.3,-0.8 0,-1.1 l -3.4,-3.4 4.9,-4.9 5.2,5.2 V 53.8 H 21.1 V 43.7 Z m 17,-17 v 3.5 H 21.1 V 20 c 0,-0.5 0.3,-0.9 0.6,-1.2 0.2,-0.2 0.5,-0.2 0.8,-0.2 h 21 c 0.8,0 1.3,0.6 1.3,1.4 z M 21.1,58.9 v -3.5 h 23.8 v 3.4 c 0,0.8 -0.6,1.4 -1.4,1.4 h -21 c -0.2,0 -0.3,0 -0.4,-0.1 -0.7,-0.2 -1,-0.7 -1,-1.2 z M 46.4,30.4 c 0,-14.1 0,3.7 0,-10.4 v 0 c 0,-1.7 -1.4,-3 -3,-3 h -21 c -1.6,0 -2.9,1.3 -2.9,2.9 v 10.6 c -1.4,0.3 -2.5,0.6 -3.2,0.8 0,-2.7 0.3,-3.6 -0.5,-3.9 -6.9,-2.3 -11,-5.9 -11,-9.6 0,-6.6 13,-12.2 28.3,-12.2 15.3,0 28.3,5.6 28.3,12.2 0,6.6 -12.7,10.1 -11,9.6 -0.8,0.3 -0.5,1.2 -0.5,3.9 -1.2,-0.3 -2.3,-0.6 -3.5,-0.9 z m 14.9,-8.2 v 12.1 c 0,3.5 -3.7,6.9 -10,9.2 V 32.4 28.7 c 0.1,0 0.3,-0.1 0.4,-0.1 3.4,-1.3 7.5,-3.4 9.6,-6.4 z"
                     inkscape:connector-curvature="0"
                     style="fill:#f07b3f;fill-opacity:0.94117647" />
                </g>
                <g
                   id="g1094"
                   style="fill:#f07b3f;fill-opacity:0.94117647">
                  <path
                     id="path1092"
                     d="m 33,59.9 c 1.1,0 2.1,-0.9 2.1,-2.1 0,-1.1 -0.9,-2.1 -2.1,-2.1 -1.1,0 -2.1,0.9 -2.1,2.1 0,1.2 1,2.1 2.1,2.1 z m 0,-2.6 c 0.3,0 0.6,0.2 0.6,0.6 0,0.3 -0.2,0.6 -0.6,0.6 -0.3,0 -0.6,-0.2 -0.6,-0.6 0,-0.3 0.3,-0.6 0.6,-0.6 z"
                     inkscape:connector-curvature="0"
                     style="fill:#f07b3f;fill-opacity:0.94117647" />
                </g>
                <g
                   id="g1098"
                   style="fill:#f07b3f;fill-opacity:0.94117647">
                  <path
                     id="path1096"
                     d="M 38.4,20.3 H 27.6 c -0.4,0 -0.8,0.3 -0.8,0.8 0,0.4 0.3,0.8 0.8,0.8 h 10.7 c 0.4,0 0.8,-0.3 0.8,-0.8 0,-0.5 -0.3,-0.8 -0.7,-0.8 z"
                     inkscape:connector-curvature="0"
                     style="fill:#f07b3f;fill-opacity:0.94117647" />
                </g>
                <g
                   id="g1102"
                   style="fill:#f07b3f;fill-opacity:0.94117647">
                  <path
                     id="path1100"
                     d="m 30.9,27.5 c -2,0 -3.6,1.6 -3.6,3.6 0,2 1.6,3.6 3.6,3.6 2,0 3.6,-1.6 3.6,-3.6 -0.1,-2 -1.6,-3.6 -3.6,-3.6 z m 0,5.6 c -1.1,0 -2.1,-0.9 -2.1,-2.1 0,-1.1 0.9,-2.1 2.1,-2.1 1.1,0 2.1,0.9 2.1,2.1 -0.1,1.2 -1,2.1 -2.1,2.1 z"
                     inkscape:connector-curvature="0"
                     style="fill:#f07b3f;fill-opacity:0.94117647" />
                </g>
              </g>
            </g>
          </g>
        </g>
      </g>
    </g>
  </g>
</svg>
