<?xml version="1.0" encoding="UTF-8" standalone="no"?>
<!-- Created with Inkscape (http://www.inkscape.org/) -->

<svg
   xmlns:dc="http://purl.org/dc/elements/1.1/"
   xmlns:cc="http://creativecommons.org/ns#"
   xmlns:rdf="http://www.w3.org/1999/02/22-rdf-syntax-ns#"
   xmlns:svg="http://www.w3.org/2000/svg"
   xmlns="http://www.w3.org/2000/svg"
   xmlns:xlink="http://www.w3.org/1999/xlink"
   xmlns:sodipodi="http://sodipodi.sourceforge.net/DTD/sodipodi-0.dtd"
   xmlns:inkscape="http://www.inkscape.org/namespaces/inkscape"
   width="14.7mm"
   height="17.875mm"
   viewBox="0 0 14.7 17.875"
   version="1.1"
   id="svg8"
   inkscape:version="0.92.3 (d244b95, 2018-08-02)"
   sodipodi:docname="pin-water.svg"
   enable-background="new">
  <defs
     id="defs2">
    <linearGradient
       inkscape:collect="always"
       id="linearGradient1214">
      <stop
         id="stop1212"
         offset="0"
         style="stop-color:#000081;stop-opacity:1" />
      <stop
         id="stop1210"
         offset="1"
         style="stop-color:#56d8ff;stop-opacity:1" />
    </linearGradient>
    <filter
       inkscape:collect="always"
       style="color-interpolation-filters:sRGB"
       id="filter990">
      <feBlend
         inkscape:collect="always"
         mode="multiply"
         in2="BackgroundImage"
         id="feBlend992" />
    </filter>
    <linearGradient
       inkscape:collect="always"
       xlink:href="#linearGradient1214"
       id="linearGradient1216"
       x1="22.53691"
       y1="-22.252525"
       x2="54.735477"
       y2="-22.252525"
       gradientUnits="userSpaceOnUse" />
  </defs>
  <sodipodi:namedview
     id="base"
     pagecolor="#ffffff"
     bordercolor="#666666"
     borderopacity="1.0"
     inkscape:pageopacity="0.0"
     inkscape:pageshadow="2"
     inkscape:zoom="1.4"
     inkscape:cx="62.030389"
     inkscape:cy="-59.181891"
     inkscape:document-units="mm"
     inkscape:current-layer="layer4"
     showgrid="false"
     fit-margin-top="1"
     fit-margin-left="1"
     fit-margin-right="1"
     fit-margin-bottom="1"
     inkscape:pagecheckerboard="true"
     inkscape:window-width="1280"
     inkscape:window-height="996"
     inkscape:window-x="1366"
     inkscape:window-y="0"
     inkscape:window-maximized="1" />
  <metadata
     id="metadata5">
    <rdf:RDF>
      <cc:Work
         rdf:about="">
        <dc:format>image/svg+xml</dc:format>
        <dc:type
           rdf:resource="http://purl.org/dc/dcmitype/StillImage" />
        <dc:title></dc:title>
      </cc:Work>
    </rdf:RDF>
  </metadata>
  <g
     inkscape:groupmode="layer"
     id="layer3"
     inkscape:label="Layer 3"
     style="display:inline">
    <g
       transform="matrix(0.26458333,0,0,0.26458333,0.999974,1.000026)"
       id="g917"
       style="display:inline">
      <g
         style="fill:none;fill-rule:evenodd;stroke:none;stroke-width:1"
         id="g915">
        <g
           style="fill:#000000"
           transform="translate(-365,-571)"
           id="g913">
          <g
             transform="translate(365,571)"
             id="g911">
            <path
               style="fill:#000000;fill-opacity:1"
               inkscape:connector-curvature="0"
               d="m 7.3931,38.4199 c 0.2,0.233 13.055,15.161 16.607,19.104 3.552,-3.943 16.407,-18.871 16.607,-19.104 0.003,-0.003 0.006,-0.007 0.009,-0.011 3.472,-4 5.384,-9.117 5.384,-14.409 0,-12.131 -9.869,-22 -22,-22 -12.131,0 -22,9.869 -22,22 0,5.292 1.912,10.409 5.384,14.409 0.003,0.004 0.006,0.008 0.009,0.011 m 16.607,21.58 c -0.271,0 -0.53,-0.11 -0.719,-0.305 -0.152,-0.157 -15.475,-17.569 -17.388,-19.992 l -0.02,0.017 c -3.787,-4.363 -5.873,-9.946 -5.873,-15.72 0,-13.233 10.767,-24 24,-24 13.233,0 24,10.767 24,24 0,5.774 -2.086,11.357 -5.873,15.72 l -0.02,-0.017 c -1.913,2.423 -17.236,19.835 -17.388,19.992 -0.189,0.195 -0.448,0.305 -0.719,0.305"
               id="path903" />
            <g
               transform="translate(-48.216,38.574951)"
               id="g907">
              <path
                 style="fill:#000000;stroke-width:0.47795793"
                 inkscape:connector-curvature="0"
                 d="m 83.71201,-15.377666 c 0.468399,-0.458839 0.635684,-1.12798 0.434942,-1.754105 -0.200742,-0.626125 -0.731276,-1.070626 -1.381298,-1.166217 l -5.778512,-0.841206 c -0.243758,-0.03824 -0.458839,-0.191184 -0.56877,-0.415824 l -2.590532,-5.22886 c -0.291554,-0.587888 -0.879442,-0.955915 -1.534245,-0.955915 -0.654802,0 -1.24269,0.363248 -1.534245,0.955915 l -2.585752,5.238419 c -0.109931,0.224641 -0.325012,0.377587 -0.56877,0.415824 l -5.778512,0.836426 c -0.650023,0.09559 -1.180556,0.540093 -1.381298,1.166217 -0.200742,0.626125 -0.03824,1.295266 0.434942,1.754106 l 4.182132,4.076981 c 0.176844,0.172065 0.258097,0.425383 0.21986,0.669141 L 64.2878,-4.8769304 c -0.08603,0.506636 0.04302,0.998932 0.372807,1.386078 0.511415,0.607007 1.400417,0.788631 2.112574,0.415824 l 5.166725,-2.719581 c 0.215081,-0.11471 0.487517,-0.11471 0.702599,0 l 5.171504,2.719581 c 0.253318,0.133828 0.520975,0.200742 0.79819,0.200742 0.506636,0 0.984593,-0.22464 1.314384,-0.616566 0.329791,-0.387146 0.45884,-0.884222 0.372808,-1.386078 l -0.989373,-5.7546126 c -0.04302,-0.243759 0.03824,-0.497076 0.21986,-0.669141 z m -5.343569,4.908628 0.989373,5.7546136 c 0.03824,0.22464 -0.01912,0.439721 -0.162506,0.611786 -0.22464,0.267657 -0.616566,0.353689 -0.932018,0.186404 l -5.171505,-2.719581 c -0.243759,-0.129049 -0.520974,-0.195963 -0.79819,-0.195963 -0.277215,0 -0.549651,0.06691 -0.798189,0.195963 l -5.166726,2.719581 c -0.320232,0.167285 -0.707378,0.08125 -0.936798,-0.186404 -0.143387,-0.167285 -0.200742,-0.387146 -0.162505,-0.611786 l 0.989373,-5.7546136 c 0.09559,-0.554431 -0.09081,-1.123201 -0.492297,-1.515126 l -4.182132,-4.076981 c -0.210301,-0.205522 -0.281995,-0.497077 -0.191183,-0.774292 0.09081,-0.281995 0.320232,-0.473179 0.611786,-0.516195 l 5.778512,-0.841206 c 0.55921,-0.08125 1.041948,-0.430162 1.290486,-0.936797 l 2.585753,-5.238419 c 0.124269,-0.258098 0.377586,-0.415824 0.67392,-0.415824 0.296334,0 0.549652,0.157726 0.678701,0.420603 l 2.585752,5.238419 c 0.248538,0.506636 0.731276,0.855545 1.290486,0.936798 l 5.778512,0.841206 c 0.291554,0.04302 0.520974,0.234199 0.611786,0.516194 0.09081,0.277216 0.01912,0.56877 -0.191183,0.774292 l -4.182132,4.076981 c -0.406264,0.387146 -0.592668,0.955916 -0.497076,1.510347 z"
                 id="path905" />
            </g>
            <path
               id="path909"
               d="m 24.0001,59.9999 c -0.271,0 -0.53,-0.11 -0.719,-0.305 -0.152,-0.157 -15.475,-17.569 -17.388,-19.992 l -0.02,0.017 c -3.787,-4.363 -5.873,-9.946 -5.873,-15.72 0,-13.233 10.767,-24 24,-24 13.233,0 24,10.767 24,24 0,5.774 -2.086,11.357 -5.873,15.72 l -0.02,-0.017 c -1.913,2.423 -17.236,19.835 -17.388,19.992 -0.189,0.195 -0.448,0.305 -0.719,0.305"
               inkscape:connector-curvature="0"
               style="fill:#ffffff;fill-opacity:1"
               sodipodi:nodetypes="ccccssscccc" />
          </g>
        </g>
      </g>
    </g>
  </g>
  <g
     inkscape:label="Layer 1"
     inkscape:groupmode="layer"
     id="layer1"
     transform="translate(-65.386926,-58.493674)"
     style="display:inline;filter:url(#filter990)">
    <g
       transform="matrix(0.26458333,0,0,0.26458333,66.3869,59.4937)"
       id="g959">
      <g
         style="fill:none;fill-rule:evenodd;stroke:none;stroke-width:1"
         id="g957">
        <g
           style="display:inline;fill:#000000"
           transform="translate(-365,-571)"
           id="g955">
          <g
             transform="translate(365,571)"
             id="g953">
            <path
               style="fill:#000000;fill-opacity:1"
               inkscape:connector-curvature="0"
               d="m 7.3931,38.4199 c 0.2,0.233 13.055,15.161 16.607,19.104 3.552,-3.943 16.407,-18.871 16.607,-19.104 0.003,-0.003 0.006,-0.007 0.009,-0.011 3.472,-4 5.384,-9.117 5.384,-14.409 0,-12.131 -9.869,-22 -22,-22 -12.131,0 -22,9.869 -22,22 0,5.292 1.912,10.409 5.384,14.409 0.003,0.004 0.006,0.008 0.009,0.011 m 16.607,21.58 c -0.271,0 -0.53,-0.11 -0.719,-0.305 -0.152,-0.157 -15.475,-17.569 -17.388,-19.992 l -0.02,0.017 c -3.787,-4.363 -5.873,-9.946 -5.873,-15.72 0,-13.233 10.767,-24 24,-24 13.233,0 24,10.767 24,24 0,5.774 -2.086,11.357 -5.873,15.72 l -0.02,-0.017 c -1.913,2.423 -17.236,19.835 -17.388,19.992 -0.189,0.195 -0.448,0.305 -0.719,0.305"
               id="path945" />
            <g
               transform="translate(-48.216,38.574951)"
               id="g949" />
            <path
               id="path951"
               d="m 7.3931,38.4199 c 0.2,0.233 13.055,15.161 16.607,19.104 3.552,-3.943 16.407,-18.871 16.607,-19.104 0.003,-0.003 0.006,-0.007 0.009,-0.011 3.472,-4 5.384,-9.117 5.384,-14.409 0,-12.131 -9.869,-22 -22,-22 -12.131,0 -22,9.869 -22,22 0,5.292 1.912,10.409 5.384,14.409 0.003,0.004 0.006,0.008 0.009,0.011 m 16.607,21.58 c -0.271,0 -0.53,-0.11 -0.719,-0.305 -0.152,-0.157 -15.475,-17.569 -17.388,-19.992 l -0.02,0.017 c -3.787,-4.363 -5.873,-9.946 -5.873,-15.72 0,-13.233 10.767,-24 24,-24 13.233,0 24,10.767 24,24 0,5.774 -2.086,11.357 -5.873,15.72 l -0.02,-0.017 c -1.913,2.423 -17.236,19.835 -17.388,19.992 -0.189,0.195 -0.448,0.305 -0.719,0.305"
               inkscape:connector-curvature="0"
               style="fill:#000000;fill-opacity:1" />
          </g>
        </g>
      </g>
    </g>
  </g>
  <g
     inkscape:groupmode="layer"
     id="layer4"
     inkscape:label="Layer 2">
    <g
       id="g1066"
       transform="matrix(0.24275214,0,0,0.24275214,-1.2730567,12.704159)"
       style="fill-opacity:1;fill:url(#linearGradient1216)">
      <g
         id="g1045"
         style="fill:url(#linearGradient1216);fill-rule:evenodd;stroke:none;stroke-width:1;fill-opacity:1">
        <g
           id="g1043"
           transform="translate(-130.47758,-1019.2594)"
           style="fill:url(#linearGradient1216);fill-opacity:1">
          <g
             id="g1041"
             transform="translate(121,980)"
             style="fill-opacity:1;fill:url(#linearGradient1216)">
            <path
               id="path1037"
               d="m 44.9995,30 c -2.415,0 -4.69,-0.927 -6.408,-2.61 -3.476,-3.719 -3.446,-9.773 0.037,-13.527 l 0.108,-0.115 c 0.377,-0.403 1.01,-0.426 1.413,-0.05 0.404,0.376 0.426,1.009 0.05,1.413 l -0.107,0.115 c -2.782,2.999 -2.815,7.83 -0.071,10.767 1.311,1.283 3.09,2.007 4.978,2.007 0.552,0 1,0.447 1,1 0,0.553 -0.448,1 -1,1 m 9.32,-18.842 -8.535,-10.779 c -0.38,-0.479 -1.189,-0.479 -1.569,0 l -8.519,10.764 c -4.916,5.296 -4.912,13.827 0.028,19.037 2.557,2.543 5.916,3.814 9.275,3.814 3.359,0 6.719,-1.272 9.276,-3.814 0.016,-0.015 0.031,-0.031 0.045,-0.047 4.888,-5.534 4.884,-14.032 -0.001,-18.975"
               inkscape:connector-curvature="0"
               style="fill-opacity:1;fill:url(#linearGradient1216)" />
          </g>
        </g>
      </g>
    </g>
  </g>
</svg>
