<?xml version="1.0" encoding="UTF-8" standalone="no"?>
<!-- Created with Inkscape (http://www.inkscape.org/) -->

<svg
   xmlns:dc="http://purl.org/dc/elements/1.1/"
   xmlns:cc="http://creativecommons.org/ns#"
   xmlns:rdf="http://www.w3.org/1999/02/22-rdf-syntax-ns#"
   xmlns:svg="http://www.w3.org/2000/svg"
   xmlns="http://www.w3.org/2000/svg"
   xmlns:xlink="http://www.w3.org/1999/xlink"
   xmlns:sodipodi="http://sodipodi.sourceforge.net/DTD/sodipodi-0.dtd"
   xmlns:inkscape="http://www.inkscape.org/namespaces/inkscape"
   width="14.7mm"
   height="17.875mm"
   viewBox="0 0 14.7 17.875"
   version="1.1"
   id="svg8"
   inkscape:version="0.92.3 (d244b95, 2018-08-02)"
   sodipodi:docname="pin-wc.svg"
   enable-background="new">
  <defs
     id="defs2">
    <linearGradient
       inkscape:collect="always"
       id="linearGradient1283">
      <stop
         style="stop-color:#f07b3f;stop-opacity:1"
         offset="0"
         id="stop1279" />
      <stop
         style="stop-color:#ea5455;stop-opacity:1"
         offset="1"
         id="stop1281" />
    </linearGradient>
    <filter
       inkscape:collect="always"
       style="color-interpolation-filters:sRGB"
       id="filter990">
      <feBlend
         inkscape:collect="always"
         mode="multiply"
         in2="BackgroundImage"
         id="feBlend992" />
    </filter>
    <linearGradient
       inkscape:collect="always"
       xlink:href="#linearGradient1283"
       id="linearGradient1285"
       x1="57.334869"
       y1="63.229233"
       x2="32.442726"
       y2="63.229233"
       gradientUnits="userSpaceOnUse" />
  </defs>
  <sodipodi:namedview
     id="base"
     pagecolor="#ffffff"
     bordercolor="#666666"
     borderopacity="1.0"
     inkscape:pageopacity="0.0"
     inkscape:pageshadow="2"
     inkscape:zoom="1.4"
     inkscape:cx="97.69213"
     inkscape:cy="-85.080602"
     inkscape:document-units="mm"
     inkscape:current-layer="layer4"
     showgrid="false"
     fit-margin-top="1"
     fit-margin-left="1"
     fit-margin-right="1"
     fit-margin-bottom="1"
     inkscape:pagecheckerboard="true"
     inkscape:window-width="1280"
     inkscape:window-height="996"
     inkscape:window-x="1366"
     inkscape:window-y="0"
     inkscape:window-maximized="1" />
  <metadata
     id="metadata5">
    <rdf:RDF>
      <cc:Work
         rdf:about="">
        <dc:format>image/svg+xml</dc:format>
        <dc:type
           rdf:resource="http://purl.org/dc/dcmitype/StillImage" />
        <dc:title></dc:title>
      </cc:Work>
    </rdf:RDF>
  </metadata>
  <g
     inkscape:groupmode="layer"
     id="layer3"
     inkscape:label="Layer 3"
     style="display:inline"
     sodipodi:insensitive="true">
    <g
       transform="matrix(0.26458333,0,0,0.26458333,0.999974,1.000026)"
       id="g917"
       style="display:inline">
      <g
         style="fill:none;fill-rule:evenodd;stroke:none;stroke-width:1"
         id="g915">
        <g
           style="fill:#000000"
           transform="translate(-365,-571)"
           id="g913">
          <g
             transform="translate(365,571)"
             id="g911">
            <path
               style="fill:#000000;fill-opacity:1"
               inkscape:connector-curvature="0"
               d="m 7.3931,38.4199 c 0.2,0.233 13.055,15.161 16.607,19.104 3.552,-3.943 16.407,-18.871 16.607,-19.104 0.003,-0.003 0.006,-0.007 0.009,-0.011 3.472,-4 5.384,-9.117 5.384,-14.409 0,-12.131 -9.869,-22 -22,-22 -12.131,0 -22,9.869 -22,22 0,5.292 1.912,10.409 5.384,14.409 0.003,0.004 0.006,0.008 0.009,0.011 m 16.607,21.58 c -0.271,0 -0.53,-0.11 -0.719,-0.305 -0.152,-0.157 -15.475,-17.569 -17.388,-19.992 l -0.02,0.017 c -3.787,-4.363 -5.873,-9.946 -5.873,-15.72 0,-13.233 10.767,-24 24,-24 13.233,0 24,10.767 24,24 0,5.774 -2.086,11.357 -5.873,15.72 l -0.02,-0.017 c -1.913,2.423 -17.236,19.835 -17.388,19.992 -0.189,0.195 -0.448,0.305 -0.719,0.305"
               id="path903" />
            <g
               transform="translate(-48.216,38.574951)"
               id="g907">
              <path
                 style="fill:#000000;stroke-width:0.47795793"
                 inkscape:connector-curvature="0"
                 d="m 83.71201,-15.377666 c 0.468399,-0.458839 0.635684,-1.12798 0.434942,-1.754105 -0.200742,-0.626125 -0.731276,-1.070626 -1.381298,-1.166217 l -5.778512,-0.841206 c -0.243758,-0.03824 -0.458839,-0.191184 -0.56877,-0.415824 l -2.590532,-5.22886 c -0.291554,-0.587888 -0.879442,-0.955915 -1.534245,-0.955915 -0.654802,0 -1.24269,0.363248 -1.534245,0.955915 l -2.585752,5.238419 c -0.109931,0.224641 -0.325012,0.377587 -0.56877,0.415824 l -5.778512,0.836426 c -0.650023,0.09559 -1.180556,0.540093 -1.381298,1.166217 -0.200742,0.626125 -0.03824,1.295266 0.434942,1.754106 l 4.182132,4.076981 c 0.176844,0.172065 0.258097,0.425383 0.21986,0.669141 L 64.2878,-4.8769304 c -0.08603,0.506636 0.04302,0.998932 0.372807,1.386078 0.511415,0.607007 1.400417,0.788631 2.112574,0.415824 l 5.166725,-2.719581 c 0.215081,-0.11471 0.487517,-0.11471 0.702599,0 l 5.171504,2.719581 c 0.253318,0.133828 0.520975,0.200742 0.79819,0.200742 0.506636,0 0.984593,-0.22464 1.314384,-0.616566 0.329791,-0.387146 0.45884,-0.884222 0.372808,-1.386078 l -0.989373,-5.7546126 c -0.04302,-0.243759 0.03824,-0.497076 0.21986,-0.669141 z m -5.343569,4.908628 0.989373,5.7546136 c 0.03824,0.22464 -0.01912,0.439721 -0.162506,0.611786 -0.22464,0.267657 -0.616566,0.353689 -0.932018,0.186404 l -5.171505,-2.719581 c -0.243759,-0.129049 -0.520974,-0.195963 -0.79819,-0.195963 -0.277215,0 -0.549651,0.06691 -0.798189,0.195963 l -5.166726,2.719581 c -0.320232,0.167285 -0.707378,0.08125 -0.936798,-0.186404 -0.143387,-0.167285 -0.200742,-0.387146 -0.162505,-0.611786 l 0.989373,-5.7546136 c 0.09559,-0.554431 -0.09081,-1.123201 -0.492297,-1.515126 l -4.182132,-4.076981 c -0.210301,-0.205522 -0.281995,-0.497077 -0.191183,-0.774292 0.09081,-0.281995 0.320232,-0.473179 0.611786,-0.516195 l 5.778512,-0.841206 c 0.55921,-0.08125 1.041948,-0.430162 1.290486,-0.936797 l 2.585753,-5.238419 c 0.124269,-0.258098 0.377586,-0.415824 0.67392,-0.415824 0.296334,0 0.549652,0.157726 0.678701,0.420603 l 2.585752,5.238419 c 0.248538,0.506636 0.731276,0.855545 1.290486,0.936798 l 5.778512,0.841206 c 0.291554,0.04302 0.520974,0.234199 0.611786,0.516194 0.09081,0.277216 0.01912,0.56877 -0.191183,0.774292 l -4.182132,4.076981 c -0.406264,0.387146 -0.592668,0.955916 -0.497076,1.510347 z"
                 id="path905" />
            </g>
            <path
               id="path909"
               d="m 24.0001,59.9999 c -0.271,0 -0.53,-0.11 -0.719,-0.305 -0.152,-0.157 -15.475,-17.569 -17.388,-19.992 l -0.02,0.017 c -3.787,-4.363 -5.873,-9.946 -5.873,-15.72 0,-13.233 10.767,-24 24,-24 13.233,0 24,10.767 24,24 0,5.774 -2.086,11.357 -5.873,15.72 l -0.02,-0.017 c -1.913,2.423 -17.236,19.835 -17.388,19.992 -0.189,0.195 -0.448,0.305 -0.719,0.305"
               inkscape:connector-curvature="0"
               style="fill:#ffffff;fill-opacity:1"
               sodipodi:nodetypes="ccccssscccc" />
          </g>
        </g>
      </g>
    </g>
  </g>
  <g
     inkscape:label="Layer 1"
     inkscape:groupmode="layer"
     id="layer1"
     transform="translate(-65.386926,-58.493674)"
     style="display:inline;filter:url(#filter990)"
     sodipodi:insensitive="true">
    <g
       transform="matrix(0.26458333,0,0,0.26458333,66.3869,59.4937)"
       id="g959">
      <g
         style="fill:none;fill-rule:evenodd;stroke:none;stroke-width:1"
         id="g957">
        <g
           style="display:inline;fill:#000000"
           transform="translate(-365,-571)"
           id="g955">
          <g
             transform="translate(365,571)"
             id="g953">
            <path
               style="fill:#000000;fill-opacity:1"
               inkscape:connector-curvature="0"
               d="m 7.3931,38.4199 c 0.2,0.233 13.055,15.161 16.607,19.104 3.552,-3.943 16.407,-18.871 16.607,-19.104 0.003,-0.003 0.006,-0.007 0.009,-0.011 3.472,-4 5.384,-9.117 5.384,-14.409 0,-12.131 -9.869,-22 -22,-22 -12.131,0 -22,9.869 -22,22 0,5.292 1.912,10.409 5.384,14.409 0.003,0.004 0.006,0.008 0.009,0.011 m 16.607,21.58 c -0.271,0 -0.53,-0.11 -0.719,-0.305 -0.152,-0.157 -15.475,-17.569 -17.388,-19.992 l -0.02,0.017 c -3.787,-4.363 -5.873,-9.946 -5.873,-15.72 0,-13.233 10.767,-24 24,-24 13.233,0 24,10.767 24,24 0,5.774 -2.086,11.357 -5.873,15.72 l -0.02,-0.017 c -1.913,2.423 -17.236,19.835 -17.388,19.992 -0.189,0.195 -0.448,0.305 -0.719,0.305"
               id="path945" />
            <g
               transform="translate(-48.216,38.574951)"
               id="g949" />
            <path
               id="path951"
               d="m 7.3931,38.4199 c 0.2,0.233 13.055,15.161 16.607,19.104 3.552,-3.943 16.407,-18.871 16.607,-19.104 0.003,-0.003 0.006,-0.007 0.009,-0.011 3.472,-4 5.384,-9.117 5.384,-14.409 0,-12.131 -9.869,-22 -22,-22 -12.131,0 -22,9.869 -22,22 0,5.292 1.912,10.409 5.384,14.409 0.003,0.004 0.006,0.008 0.009,0.011 m 16.607,21.58 c -0.271,0 -0.53,-0.11 -0.719,-0.305 -0.152,-0.157 -15.475,-17.569 -17.388,-19.992 l -0.02,0.017 c -3.787,-4.363 -5.873,-9.946 -5.873,-15.72 0,-13.233 10.767,-24 24,-24 13.233,0 24,10.767 24,24 0,5.774 -2.086,11.357 -5.873,15.72 l -0.02,-0.017 c -1.913,2.423 -17.236,19.835 -17.388,19.992 -0.189,0.195 -0.448,0.305 -0.719,0.305"
               inkscape:connector-curvature="0"
               style="fill:#000000;fill-opacity:1" />
          </g>
        </g>
      </g>
    </g>
  </g>
  <g
     inkscape:groupmode="layer"
     id="layer4"
     inkscape:label="Layer 2"
     style="display:inline">
    <g
       id="g1277"
       transform="matrix(0.26458333,0,0,0.26458333,-4.3315719,-9.4519825)"
       style="fill-opacity:1;fill:url(#linearGradient1285)">
      <path
         id="path1241"
         d="M 73,104.4"
         class="st0"
         inkscape:connector-curvature="0"
         style="fill:url(#linearGradient1285);fill-opacity:1" />
      <g
         id="g1251"
         transform="matrix(0.43285521,0,0,0.43285521,23.355736,41.543186)"
         style="fill-opacity:1;fill:url(#linearGradient1285)">
        <circle
           id="circle1243"
           r="5.4000001"
           cy="29.5"
           cx="30.1"
           style="fill-opacity:1;fill:url(#linearGradient1285)" />
        <path
           id="path1245"
           d="M 36.8,38.6 C 36.5,37.4 35.3,36.5 34,36.5 h -7.9 c -1.3,0 -2.4,0.9 -2.8,2.1 l -3.2,11.7 4,3.4 2.1,25.2 h 7.7 L 36,53.7 40,50.3 Z"
           inkscape:connector-curvature="0"
           style="fill-opacity:1;fill:url(#linearGradient1285)" />
        <circle
           id="circle1247"
           r="5.4000001"
           cy="29.5"
           cx="68.599998"
           style="fill-opacity:1;fill:url(#linearGradient1285)" />
        <path
           id="path1249"
           d="m 79.8,62.5 -5.2,-9 3.9,-3.4 -2.9,-10.5 c -0.5,-1.9 -2.3,-3.2 -4.3,-3.2 h -5.5 c -2,0 -3.7,1.3 -4.3,3.2 l -2.9,10.5 3.9,3.4 -5.2,9 h 6 l 1.3,16.3 h 7.7 l 1.3,-16.3 c 0,0 6.2,0 6.2,0 z"
           inkscape:connector-curvature="0"
           style="fill-opacity:1;fill:url(#linearGradient1285)" />
      </g>
      <path
         id="path1253"
         d="m 44.998496,75.695462 v 0 c -0.173142,0 -0.302998,-0.129857 -0.302998,-0.302999 V 52.32128 c 0,-0.173142 0.129856,-0.302998 0.302998,-0.302998 v 0 c 0.173143,0 0.302999,0.129856 0.302999,0.302998 v 23.071183 c -0.04329,0.173142 -0.173142,0.302999 -0.302999,0.302999 z"
         inkscape:connector-curvature="0"
         style="stroke-width:0.43285519;fill-opacity:1;fill:url(#linearGradient1285)" />
    </g>
  </g>
  <style
     id="style1239"
     type="text/css">
	.st0{fill:#020203;}
</style>
</svg>
