<?xml version="1.0" encoding="UTF-8" standalone="no"?>
<svg
   xmlns:dc="http://purl.org/dc/elements/1.1/"
   xmlns:cc="http://creativecommons.org/ns#"
   xmlns:rdf="http://www.w3.org/1999/02/22-rdf-syntax-ns#"
   xmlns:svg="http://www.w3.org/2000/svg"
   xmlns="http://www.w3.org/2000/svg"
   xmlns:xlink="http://www.w3.org/1999/xlink"
   xmlns:sodipodi="http://sodipodi.sourceforge.net/DTD/sodipodi-0.dtd"
   xmlns:inkscape="http://www.inkscape.org/namespaces/inkscape"
   data-name="Layer 1"
   viewBox="0 0 74 74"
   x="0px"
   y="0px"
   version="1.1"
   id="svg10"
   sodipodi:docname="viewPoint.svg"
   width="74"
   height="74"
   inkscape:version="0.92.3 (d244b95, 2018-08-02)"
   inkscape:export-filename="/home/rf/Documents/Webdesign-2018/oslo-trail-klubb/graphic-resources/icons/viewPoint.png"
   inkscape:export-xdpi="96"
   inkscape:export-ydpi="96">
  <metadata
     id="metadata16">
    <rdf:RDF>
      <cc:Work
         rdf:about="">
        <dc:format>image/svg+xml</dc:format>
        <dc:type
           rdf:resource="http://purl.org/dc/dcmitype/StillImage" />
        <dc:title>Artboard 50</dc:title>
      </cc:Work>
    </rdf:RDF>
  </metadata>
  <defs
     id="defs14">
    <linearGradient
       inkscape:collect="always"
       id="linearGradient4530">
      <stop
         style="stop-color:#f07b3f;stop-opacity:1"
         offset="0"
         id="stop4526" />
      <stop
         style="stop-color:#ea5455;stop-opacity:1"
         offset="1"
         id="stop4528" />
    </linearGradient>
    <linearGradient
       inkscape:collect="always"
       xlink:href="#linearGradient4530"
       id="linearGradient4532"
       x1="73.887711"
       y1="38.512711"
       x2="1.059322"
       y2="38.512711"
       gradientUnits="userSpaceOnUse" />
  </defs>
  <sodipodi:namedview
     pagecolor="#ffffff"
     bordercolor="#666666"
     borderopacity="1"
     objecttolerance="10"
     gridtolerance="10"
     guidetolerance="10"
     inkscape:pageopacity="0"
     inkscape:pageshadow="2"
     inkscape:window-width="1280"
     inkscape:window-height="996"
     id="namedview12"
     showgrid="false"
     fit-margin-top="1"
     fit-margin-left="1"
     fit-margin-right="1"
     fit-margin-bottom="1"
     inkscape:zoom="3.776"
     inkscape:cx="48.519614"
     inkscape:cy="50.762725"
     inkscape:window-x="1366"
     inkscape:window-y="0"
     inkscape:window-maximized="1"
     inkscape:current-layer="svg10" />
  <title
     id="title2">Artboard 50</title>
  <path
     d="m 11.545,11.543312 a 36,36 0 1 0 50.91,0 36,36 0 0 0 -50.91,0 z m 36.45,13 a 42.21,42.21 0 0 1 8.92,5.5 l -1.24,1.57 a 40.17,40.17 0 0 0 -8.53,-5.26 z m -2.73,12.5 a 8.26,8.26 0 0 1 -14.36,5.57 l 1.48,-1.35 a 6.26,6.26 0 0 0 10.88,-4.22 z m -2.49,-2.44 a 6.26,6.26 0 0 0 -12,2.44 h -2 a 8.26,8.26 0 0 1 15.87,-3.22 z m -23,11.39 a 49.39,49.39 0 0 1 -9.34,-8.31 l -0.53,-0.64 0.53,-0.64 c 0.48,-0.59 12,-14.36 26.6,-14.36 a 25.38,25.38 0 0 1 7.56,1.2 l -0.6,1.91 a 23.38,23.38 0 0 0 -7,-1.11 c -11.9,0 -22.05,10.31 -24.5,13 a 49.67,49.67 0 0 0 8.37,7.3 z m 17.27,6.05 a 27.32,27.32 0 0 1 -11.57,-2.77 l 0.85,-1.81 a 25.34,25.34 0 0 0 10.72,2.58 c 9.3,0 17.53,-6.31 21.6,-10.08 l 1.31,1.39 c -4.29,4 -12.98,10.65 -22.96,10.65 z m 25.01,-14.4 a 41.68,41.68 0 0 0 -3.45,-3.55 l 1.36,-1.47 a 42.39,42.39 0 0 1 3.64,3.73 z"
     id="path4"
     inkscape:connector-curvature="0"
     style="fill-opacity:1;fill:url(#linearGradient4532)" />
</svg>
