<?xml version="1.0" encoding="UTF-8" standalone="no"?>
<svg
   xmlns:dc="http://purl.org/dc/elements/1.1/"
   xmlns:cc="http://creativecommons.org/ns#"
   xmlns:rdf="http://www.w3.org/1999/02/22-rdf-syntax-ns#"
   xmlns:svg="http://www.w3.org/2000/svg"
   xmlns="http://www.w3.org/2000/svg"
   xmlns:xlink="http://www.w3.org/1999/xlink"
   xmlns:sodipodi="http://sodipodi.sourceforge.net/DTD/sodipodi-0.dtd"
   xmlns:inkscape="http://www.inkscape.org/namespaces/inkscape"
   data-name="Layer 1"
   viewBox="0 0 50.710003 75.723587"
   x="0px"
   y="0px"
   version="1.1"
   id="svg10"
   sodipodi:docname="water2.svg"
   width="50.710003"
   height="75.723587"
   inkscape:version="0.92.3 (d244b95, 2018-08-02)"
   inkscape:export-filename="/home/rf/Documents/Webdesign-2018/oslo-trail-klubb/graphic-resources/icons/water2.png"
   inkscape:export-xdpi="96"
   inkscape:export-ydpi="96">
  <metadata
     id="metadata16">
    <rdf:RDF>
      <cc:Work
         rdf:about="">
        <dc:format>image/svg+xml</dc:format>
        <dc:type
           rdf:resource="http://purl.org/dc/dcmitype/StillImage" />
        <dc:title>Artboard 19</dc:title>
      </cc:Work>
    </rdf:RDF>
  </metadata>
  <defs
     id="defs14">
    <linearGradient
       inkscape:collect="always"
       id="linearGradient827">
      <stop
         style="stop-color:#f07b3f;stop-opacity:1"
         offset="0"
         id="stop823" />
      <stop
         style="stop-color:#ea5455;stop-opacity:1"
         offset="1"
         id="stop825" />
    </linearGradient>
    <linearGradient
       inkscape:collect="always"
       xlink:href="#linearGradient827"
       id="linearGradient829"
       x1="50.186604"
       y1="49.693966"
       x2="0.56179035"
       y2="49.693966"
       gradientUnits="userSpaceOnUse" />
  </defs>
  <sodipodi:namedview
     pagecolor="#ffffff"
     bordercolor="#666666"
     borderopacity="1"
     objecttolerance="10"
     gridtolerance="10"
     guidetolerance="10"
     inkscape:pageopacity="0"
     inkscape:pageshadow="2"
     inkscape:window-width="1366"
     inkscape:window-height="713"
     id="namedview12"
     showgrid="false"
     fit-margin-top="1"
     fit-margin-left="1"
     fit-margin-right="1"
     fit-margin-bottom="1"
     inkscape:zoom="5.3400704"
     inkscape:cx="-0.2422273"
     inkscape:cy="24.233916"
     inkscape:window-x="0"
     inkscape:window-y="27"
     inkscape:window-maximized="1"
     inkscape:current-layer="svg10" />
  <title
     id="title2">Artboard 19</title>
  <path
     d="m 25.330002,74.723585 a 24.38,24.38 0 0 0 24.38,-24.38 c 0,-9.83 -13,-34.32 -20,-46.8000001 a 5,5 0 0 0 -8.71,0 c -7,12.4800001 -19.9999999,37.0000001 -19.9999999,46.8000001 a 24.37,24.37 0 0 0 24.3299999,24.38 z m -12.32,-26.54 a 3,3 0 0 1 3,3 9.28,9.28 0 0 0 9.27,9.27 3,3 0 0 1 0,6 15.29,15.29 0 0 1 -15.27,-15.27 3,3 0 0 1 3,-3 z"
     id="path4"
     inkscape:connector-curvature="0"
     style="fill-opacity:1;fill:url(#linearGradient829);stroke:#000000;stroke-opacity:1;stroke-width:0.5;stroke-miterlimit:4;stroke-dasharray:none" />
</svg>
