<?xml version="1.0" encoding="UTF-8" standalone="no"?>
<svg
   xmlns:dc="http://purl.org/dc/elements/1.1/"
   xmlns:cc="http://creativecommons.org/ns#"
   xmlns:rdf="http://www.w3.org/1999/02/22-rdf-syntax-ns#"
   xmlns:svg="http://www.w3.org/2000/svg"
   xmlns="http://www.w3.org/2000/svg"
   xmlns:xlink="http://www.w3.org/1999/xlink"
   xmlns:sodipodi="http://sodipodi.sourceforge.net/DTD/sodipodi-0.dtd"
   xmlns:inkscape="http://www.inkscape.org/namespaces/inkscape"
   data-name="Layer 1"
   viewBox="0 0 74 74.00016"
   x="0px"
   y="0px"
   version="1.1"
   id="svg10"
   sodipodi:docname="water.svg"
   width="74"
   height="74.00016"
   inkscape:version="0.92.3 (d244b95, 2018-08-02)"
   inkscape:export-filename="/home/rf/Documents/Webdesign-2018/oslo-trail-klubb/graphic-resources/icons/water.png"
   inkscape:export-xdpi="96"
   inkscape:export-ydpi="96">
  <metadata
     id="metadata16">
    <rdf:RDF>
      <cc:Work
         rdf:about="">
        <dc:format>image/svg+xml</dc:format>
        <dc:type
           rdf:resource="http://purl.org/dc/dcmitype/StillImage" />
        <dc:title>Artboard 50</dc:title>
      </cc:Work>
    </rdf:RDF>
  </metadata>
  <defs
     id="defs14">
    <linearGradient
       inkscape:collect="always"
       id="linearGradient4597">
      <stop
         style="stop-color:#f07b3f;stop-opacity:1"
         offset="0"
         id="stop4593" />
      <stop
         style="stop-color:#ea5455;stop-opacity:1"
         offset="1"
         id="stop4595" />
    </linearGradient>
    <linearGradient
       inkscape:collect="always"
       xlink:href="#linearGradient4597"
       id="linearGradient4599"
       x1="85.301193"
       y1="50.258217"
       x2="12.472802"
       y2="50.258217"
       gradientUnits="userSpaceOnUse" />
  </defs>
  <sodipodi:namedview
     pagecolor="#ffffff"
     bordercolor="#666666"
     borderopacity="1"
     objecttolerance="10"
     gridtolerance="10"
     guidetolerance="10"
     inkscape:pageopacity="0"
     inkscape:pageshadow="2"
     inkscape:window-width="1280"
     inkscape:window-height="996"
     id="namedview12"
     showgrid="false"
     fit-margin-top="1"
     fit-margin-left="1"
     fit-margin-right="1"
     fit-margin-bottom="1"
     inkscape:zoom="3.776"
     inkscape:cx="48.767675"
     inkscape:cy="51.211041"
     inkscape:window-x="1366"
     inkscape:window-y="0"
     inkscape:window-maximized="1"
     inkscape:current-layer="g4572" />
  <title
     id="title2">Artboard 50</title>
  <g
     id="g4572"
     transform="translate(-11.678311,-12.539838)">
    <path
       id="path4555"
       d="M 48.67,13.54 A 36,36 0 1 0 74.13,24.08 35.76,35.76 0 0 0 48.67,13.54 Z m 0,54.25 A 14.87,14.87 0 0 1 33.81,52.93 c 0,-8 13.6,-20.83 14.17,-21.38 l 0.68,-0.64 0.68,0.64 c 0.05,0 1.31,1.23 3.08,3.1 L 51,36 C 50,35 49.23,34.17 48.69,33.64 45.94,36.34 35.83,46.7 35.83,52.9 A 12.87,12.87 0 0 0 48.67,65.79 12.73,12.73 0 0 0 54.3,64.5 l 0.88,1.8 a 14.72,14.72 0 0 1 -6.51,1.49 z m -0.32,-7.72 v 2 a 9.21,9.21 0 0 1 -4.61,-1.23 l 1,-1.73 a 7.21,7.21 0 0 0 3.61,0.96 z m -6.09,-3.34 -1.69,1.07 a 9.19,9.19 0 0 1 -1.44,-4.94 h 2 a 7.19,7.19 0 0 0 1.14,3.87 z m 10.63,-18.61 1.5,-1.33 a 68.54,68.54 0 0 1 4.84,6 L 57.59,44 a 66.29,66.29 0 0 0 -4.7,-5.88 z M 59.11,63.5 57.7,62.08 a 12.77,12.77 0 0 0 3.82,-9.15 13,13 0 0 0 -2,-6 l 1.74,-1 a 14.82,14.82 0 0 1 2.29,6.95 14.75,14.75 0 0 1 -4.44,10.62 z"
       inkscape:connector-curvature="0"
       style="fill-opacity:1;fill:url(#linearGradient4599)" />
  </g>
</svg>
