<?xml version="1.0" encoding="UTF-8" standalone="no"?>
<svg
   xmlns:dc="http://purl.org/dc/elements/1.1/"
   xmlns:cc="http://creativecommons.org/ns#"
   xmlns:rdf="http://www.w3.org/1999/02/22-rdf-syntax-ns#"
   xmlns:svg="http://www.w3.org/2000/svg"
   xmlns="http://www.w3.org/2000/svg"
   xmlns:xlink="http://www.w3.org/1999/xlink"
   xmlns:sodipodi="http://sodipodi.sourceforge.net/DTD/sodipodi-0.dtd"
   xmlns:inkscape="http://www.inkscape.org/namespaces/inkscape"
   data-name="Layer 1"
   viewBox="0 0 65.733192 63.486927"
   x="0px"
   y="0px"
   version="1.1"
   id="svg16"
   sodipodi:docname="water3.svg"
   width="65.733192"
   height="63.486927"
   inkscape:version="0.92.3 (d244b95, 2018-08-02)"
   inkscape:export-filename="/home/rf/Documents/Webdesign-2018/oslo-trail-klubb/graphic-resources/icons/water3.png"
   inkscape:export-xdpi="96"
   inkscape:export-ydpi="96">
  <metadata
     id="metadata22">
    <rdf:RDF>
      <cc:Work
         rdf:about="">
        <dc:format>image/svg+xml</dc:format>
        <dc:type
           rdf:resource="http://purl.org/dc/dcmitype/StillImage" />
        <dc:title>Artboard 7</dc:title>
      </cc:Work>
    </rdf:RDF>
  </metadata>
  <defs
     id="defs20">
    <linearGradient
       id="linearGradient4590"
       inkscape:collect="always">
      <stop
         id="stop4586"
         offset="0"
         style="stop-color:#f07b3f;stop-opacity:1" />
      <stop
         id="stop4588"
         offset="1"
         style="stop-color:#ea5455;stop-opacity:1" />
    </linearGradient>
    <linearGradient
       id="linearGradient4584"
       inkscape:collect="always">
      <stop
         id="stop4580"
         offset="0"
         style="stop-color:#f07b3f;stop-opacity:1" />
      <stop
         id="stop4582"
         offset="1"
         style="stop-color:#ea5455;stop-opacity:1" />
    </linearGradient>
    <linearGradient
       id="linearGradient4578"
       inkscape:collect="always">
      <stop
         id="stop4574"
         offset="0"
         style="stop-color:#f07b3f;stop-opacity:1" />
      <stop
         id="stop4576"
         offset="1"
         style="stop-color:#ea5455;stop-opacity:1" />
    </linearGradient>
    <linearGradient
       inkscape:collect="always"
       id="linearGradient4564">
      <stop
         style="stop-color:#f07b3f;stop-opacity:1"
         offset="0"
         id="stop4560" />
      <stop
         style="stop-color:#ea5455;stop-opacity:1"
         offset="1"
         id="stop4562" />
    </linearGradient>
    <linearGradient
       inkscape:collect="always"
       xlink:href="#linearGradient4564"
       id="linearGradient4566"
       x1="66.472458"
       y1="34.885231"
       x2="-0.2648305"
       y2="34.885231"
       gradientUnits="userSpaceOnUse" />
    <linearGradient
       inkscape:collect="always"
       xlink:href="#linearGradient4590"
       id="linearGradient4568"
       x1="66.472458"
       y1="34.885231"
       x2="-0.2648305"
       y2="34.885231"
       gradientUnits="userSpaceOnUse" />
    <linearGradient
       inkscape:collect="always"
       xlink:href="#linearGradient4584"
       id="linearGradient4570"
       x1="66.472458"
       y1="34.885231"
       x2="-0.2648305"
       y2="34.885231"
       gradientUnits="userSpaceOnUse" />
    <linearGradient
       inkscape:collect="always"
       xlink:href="#linearGradient4578"
       id="linearGradient4572"
       x1="66.472458"
       y1="34.885231"
       x2="-0.2648305"
       y2="34.885231"
       gradientUnits="userSpaceOnUse" />
  </defs>
  <sodipodi:namedview
     pagecolor="#ffffff"
     bordercolor="#666666"
     borderopacity="1"
     objecttolerance="10"
     gridtolerance="10"
     guidetolerance="10"
     inkscape:pageopacity="0"
     inkscape:pageshadow="2"
     inkscape:window-width="1280"
     inkscape:window-height="996"
     id="namedview18"
     showgrid="false"
     fit-margin-top="1"
     fit-margin-left="1"
     fit-margin-right="1"
     fit-margin-bottom="1"
     inkscape:zoom="3.776"
     inkscape:cx="30.049555"
     inkscape:cy="23.429406"
     inkscape:window-x="1366"
     inkscape:window-y="0"
     inkscape:window-maximized="1"
     inkscape:current-layer="svg16" />
  <title
     id="title2">Artboard 7</title>
  <path
     d="m 62.023191,57.291928 c 0,-2.3 -3,-7.21 -3.93,-8.66 a 1.56,1.56 0 0 0 -2.53,0 c -0.92,1.41 -3.92,6.41 -3.92,8.66 a 5.195,5.195 0 1 0 10.39,0 z m -5.19,2.19 a 2.2,2.2 0 0 1 -2.19,-2.19 c 0,-0.71 1,-2.82 2.19,-4.94 1.2,2.12 2.19,4.23 2.19,4.94 a 2.2,2.2 0 0 1 -2.19,2.19 z"
     id="path4"
     inkscape:connector-curvature="0"
     style="fill-opacity:1;fill:url(#linearGradient4572);stroke:#000000;stroke-opacity:1;stroke-width:0.3;stroke-miterlimit:4;stroke-dasharray:none" />
  <path
     d="m 52.513191,29.651928 a 4.2,4.2 0 0 1 4.2,4.2 1.5,1.5 0 1 0 3,0 7.21,7.21 0 0 0 -7.2,-7.2 1.5,1.5 0 0 0 0,3 z"
     id="path6"
     inkscape:connector-curvature="0"
     style="fill-opacity:1;fill:url(#linearGradient4570);stroke:#000000;stroke-opacity:1;stroke-width:0.3;stroke-miterlimit:4;stroke-dasharray:none" />
  <path
     d="m 38.333191,61.941928 a 1.5,1.5 0 0 0 0,-3 h -27.2 a 1.5,1.5 0 0 0 0,3 z"
     id="path8"
     inkscape:connector-curvature="0"
     style="fill-opacity:1;fill:url(#linearGradient4568);stroke:#000000;stroke-opacity:1;stroke-width:0.3;stroke-miterlimit:4;stroke-dasharray:none" />
  <path
     d="M 6.1631913,13.631928 A 5.14,5.14 0 0 0 11.063191,9.9819282 h 9.59 v 3.5599998 h -1.73 a 6.51,6.51 0 0 0 -6.5,6.5 v 34.12 a 1.5,1.5 0 0 0 1.5,1.5 h 21.6 a 1.5,1.5 0 0 0 1.5,-1.5 v -17 h 8.21 c 4.42,0 4.43,0.33 4.5,3.5 v 2.47 a 1.5,1.5 0 0 0 1.5,1.5 h 12 a 1.5,1.5 0 0 0 1.5,-1.5 v -10.5 a 10.51,10.51 0 0 0 -10.5,-10.5 h -17.21 v -2.09 a 6.51,6.51 0 0 0 -6.5,-6.5 h -1.73 V 9.9819282 h 9 a 5.15,5.15 0 1 0 0,-3 h -9 v -1.7 a 4.08,4.08 0 1 0 -8.15,0 v 1.7 h -9.59 A 5.14,5.14 0 1 0 6.1531913,13.631928 Z m 30.8599997,11.5 h 17.21 a 7.51,7.51 0 0 1 7.5,7.5 v 9 h -9 v -1 c -0.12,-5.57 -2.31,-6.47 -7.5,-6.47 h -8.21 z m 5.63,-18.7999998 a 2.15,2.15 0 1 1 -2.15,2.15 2.15,2.15 0 0 1 2.15,-2.15 z m -19,-1 a 1.08,1.08 0 1 1 2.15,0 v 8.2099998 h -2.16 z m -1.51,11.2099998 h 8.38 a 3.5,3.5 0 0 1 3.5,3.5 v 32.62 h -18.6 v -3.29 h 8.44 a 1.5,1.5 0 0 0 0,-3 h -8.44 v -26.33 a 3.5,3.5 0 0 1 3.5,-3.5 z M 6.1431913,6.3319282 a 2.15,2.15 0 1 1 -2.15,2.15 2.15,2.15 0 0 1 2.17,-2.15 z"
     id="path10"
     inkscape:connector-curvature="0"
     style="fill-opacity:1;fill:url(#linearGradient4566);stroke:#000000;stroke-opacity:1;stroke-width:0.3;stroke-miterlimit:4;stroke-dasharray:none" />
</svg>
