<?xml version="1.0" encoding="UTF-8" standalone="no"?>
<!-- Created with Inkscape (http://www.inkscape.org/) -->

<svg
   xmlns:dc="http://purl.org/dc/elements/1.1/"
   xmlns:cc="http://creativecommons.org/ns#"
   xmlns:rdf="http://www.w3.org/1999/02/22-rdf-syntax-ns#"
   xmlns:svg="http://www.w3.org/2000/svg"
   xmlns="http://www.w3.org/2000/svg"
   xmlns:sodipodi="http://sodipodi.sourceforge.net/DTD/sodipodi-0.dtd"
   xmlns:inkscape="http://www.inkscape.org/namespaces/inkscape"
   width="23.431276mm"
   height="24.225mm"
   viewBox="0 0 23.431275 24.225001"
   version="1.1"
   id="svg8"
   sodipodi:docname="wc-tool.svg"
   inkscape:export-filename="/home/rf/Documents/Webdesign-2018/oslo-trail-klubb/graphic-resources/icons/wc-tool.png"
   inkscape:export-xdpi="96"
   inkscape:export-ydpi="96"
   inkscape:version="0.92.3 (d244b95, 2018-08-02)">
  <defs
     id="defs2" />
  <sodipodi:namedview
     id="base"
     pagecolor="#ffffff"
     bordercolor="#666666"
     borderopacity="1.0"
     inkscape:pageopacity="0.0"
     inkscape:pageshadow="2"
     inkscape:zoom="1.979899"
     inkscape:cx="49.282909"
     inkscape:cy="-9.1404035"
     inkscape:document-units="mm"
     inkscape:current-layer="g5016"
     showgrid="false"
     fit-margin-top="1"
     fit-margin-left="1"
     fit-margin-right="1"
     fit-margin-bottom="1"
     inkscape:window-width="1280"
     inkscape:window-height="996"
     inkscape:window-x="1366"
     inkscape:window-y="0"
     inkscape:window-maximized="1" />
  <metadata
     id="metadata5">
    <rdf:RDF>
      <cc:Work
         rdf:about="">
        <dc:format>image/svg+xml</dc:format>
        <dc:type
           rdf:resource="http://purl.org/dc/dcmitype/StillImage" />
        <dc:title></dc:title>
      </cc:Work>
    </rdf:RDF>
  </metadata>
  <g
     inkscape:label="Layer 1"
     inkscape:groupmode="layer"
     id="layer1"
     transform="translate(-90.540252,-56.115118)">
    <g
       id="g841"
       transform="matrix(0.26458333,0,0,0.26458333,95.394576,111.55991)">
      <g
         id="g4623"
         transform="translate(4.1945349,-13.473322)">
        <g
           id="g4683"
           transform="translate(-3.4223853,-23.596431)">
          <g
             id="g4731"
             transform="translate(-6.2795269,-22.239088)">
            <g
               id="g4769"
               transform="translate(6.5976166,-27.032128)">
              <g
                 id="g4835"
                 transform="translate(-4.1361706,-26.865564)">
                <g
                   id="g4892"
                   transform="translate(4.9883315,-24.881838)">
                  <g
                     id="g4970"
                     transform="translate(-5.2819929,-22.459655)">
                    <g
                       id="g5016"
                       transform="translate(-20.977835,-53.22757)">
                      <path
                         id="path4993"
                         d="m 29.75,60.75 v 26 h 2.5 v -23.5 h 6 v -20 A 9.48,9.48 0 0 0 30.82,34 9.76,9.76 0 1 0 18.12,33.85 9.46,9.46 0 0 0 9.75,43.29 v 20 h 7 v 23.5 h 2.5 v -26 h -7 V 43.25 a 6.94,6.94 0 0 1 6.87,-7 h 9.76 a 6.94,6.94 0 0 1 6.87,7 v 17.5 z m -5.2,-27 a 7.25,7.25 0 1 1 7.25,-7.25 7.26,7.26 0 0 1 -7.25,7.25 z"
                         inkscape:connector-curvature="0" />
                      <path
                         id="path4995"
                         d="M 61.45,43.12 V 57.57 L 56.93,73.25 H 68.75 V 87 h 2.5 V 70.75 h -11 l 3.65,-12.65 0.05,-15 a 6.92,6.92 0 0 1 7,-6.87 h 5.86 a 6.92,6.92 0 0 1 7,6.87 v 14.65 l 3.7,13 H 76.75 V 87 h 2.5 V 73.25 h 11.5 L 86.23,57.57 V 43.12 a 9.41,9.41 0 0 0 -6.48,-8.89 9.75,9.75 0 1 0 -11.82,0 9.41,9.41 0 0 0 -6.48,8.89 z M 66.59,26.5 a 7.25,7.25 0 1 1 7.25,7.25 7.26,7.26 0 0 1 -7.25,-7.25 z"
                         inkscape:connector-curvature="0" />
                      <rect
                         id="rect4997"
                         height="84"
                         width="2.5"
                         y="8"
                         x="48.75" />
                    </g>
                  </g>
                </g>
              </g>
            </g>
          </g>
        </g>
      </g>
    </g>
  </g>
</svg>
