<?xml version="1.0" encoding="UTF-8" standalone="no"?>
<svg
   xmlns:dc="http://purl.org/dc/elements/1.1/"
   xmlns:cc="http://creativecommons.org/ns#"
   xmlns:rdf="http://www.w3.org/1999/02/22-rdf-syntax-ns#"
   xmlns:svg="http://www.w3.org/2000/svg"
   xmlns="http://www.w3.org/2000/svg"
   xmlns:xlink="http://www.w3.org/1999/xlink"
   xmlns:sodipodi="http://sodipodi.sourceforge.net/DTD/sodipodi-0.dtd"
   xmlns:inkscape="http://www.inkscape.org/namespaces/inkscape"
   data-name="Layer 1"
   viewBox="0 0 92 92"
   x="0px"
   y="0px"
   version="1.1"
   id="svg14"
   sodipodi:docname="WC.svg"
   width="92"
   height="92"
   inkscape:version="0.92.3 (d244b95, 2018-08-02)"
   inkscape:export-filename="/home/rf/Documents/Webdesign-2018/oslo-trail-klubb/graphic-resources/icons/WC.png"
   inkscape:export-xdpi="96"
   inkscape:export-ydpi="96">
  <metadata
     id="metadata20">
    <rdf:RDF>
      <cc:Work
         rdf:about="">
        <dc:format>image/svg+xml</dc:format>
        <dc:type
           rdf:resource="http://purl.org/dc/dcmitype/StillImage" />
        <dc:title>toilet, bathroom, lavatory, restroom, toilette</dc:title>
      </cc:Work>
    </rdf:RDF>
  </metadata>
  <defs
     id="defs18">
    <linearGradient
       id="linearGradient849"
       inkscape:collect="always">
      <stop
         id="stop845"
         offset="0"
         style="stop-color:#f07b3f;stop-opacity:1" />
      <stop
         id="stop847"
         offset="1"
         style="stop-color:#ea5455;stop-opacity:1" />
    </linearGradient>
    <linearGradient
       id="linearGradient843"
       inkscape:collect="always">
      <stop
         id="stop839"
         offset="0"
         style="stop-color:#f07b3f;stop-opacity:1" />
      <stop
         id="stop841"
         offset="1"
         style="stop-color:#ea5455;stop-opacity:1" />
    </linearGradient>
    <linearGradient
       inkscape:collect="always"
       id="linearGradient831">
      <stop
         style="stop-color:#f07b3f;stop-opacity:1"
         offset="0"
         id="stop827" />
      <stop
         style="stop-color:#ea5455;stop-opacity:1"
         offset="1"
         id="stop829" />
    </linearGradient>
    <linearGradient
       inkscape:collect="always"
       xlink:href="#linearGradient831"
       id="linearGradient833"
       x1="92.161018"
       y1="47.773304"
       x2="1.3241526"
       y2="47.773304"
       gradientUnits="userSpaceOnUse" />
    <linearGradient
       inkscape:collect="always"
       xlink:href="#linearGradient849"
       id="linearGradient835"
       x1="92.161018"
       y1="47.773304"
       x2="1.3241526"
       y2="47.773304"
       gradientUnits="userSpaceOnUse" />
    <linearGradient
       inkscape:collect="always"
       xlink:href="#linearGradient843"
       id="linearGradient837"
       x1="92.161018"
       y1="47.773304"
       x2="1.3241526"
       y2="47.773304"
       gradientUnits="userSpaceOnUse" />
  </defs>
  <sodipodi:namedview
     pagecolor="#ffffff"
     bordercolor="#666666"
     borderopacity="1"
     objecttolerance="10"
     gridtolerance="10"
     guidetolerance="10"
     inkscape:pageopacity="0"
     inkscape:pageshadow="2"
     inkscape:window-width="1280"
     inkscape:window-height="996"
     id="namedview16"
     showgrid="false"
     fit-margin-top="1"
     fit-margin-left="1"
     fit-margin-right="1"
     fit-margin-bottom="1"
     inkscape:zoom="3.776"
     inkscape:cx="65.891288"
     inkscape:cy="36.385654"
     inkscape:window-x="1366"
     inkscape:window-y="0"
     inkscape:window-maximized="1"
     inkscape:current-layer="svg14" />
  <title
     id="title2">toilet, bathroom, lavatory, restroom, toilette</title>
  <circle
     cx="20.549999"
     cy="22.5"
     r="6.5"
     id="circle4"
     style="fill-opacity:1;fill:url(#linearGradient837)" />
  <circle
     cx="69.839996"
     cy="22.5"
     r="6.5"
     id="circle6"
     style="fill-opacity:1;fill:url(#linearGradient835)" />
  <path
     d="M 88,1 H 4 A 3,3 0 0 0 1,4 v 84 a 3,3 0 0 0 3,3 h 84 a 3,3 0 0 0 3,-3 V 4 A 3,3 0 0 0 88,1 Z M 35,60 H 29 V 82.79 H 25 V 56 h 6 V 39.25 A 6.19,6.19 0 0 0 24.88,33 H 15.12 A 6.19,6.19 0 0 0 9,39.25 V 56 h 7 V 82.79 H 12 V 60 H 5 V 39.25 A 10.23,10.23 0 0 1 12.6,29.34 10.5,10.5 0 1 1 28.26,29.6 10.26,10.26 0 0 1 35,39.25 Z M 48,88 H 44 V 4 h 4 z M 76,70 V 83 H 72 V 66 H 82.43 L 79,54 V 39.12 A 6.18,6.18 0 0 0 72.77,33 H 66.91 A 6.17,6.17 0 0 0 60.7,39.12 V 54 L 57.25,66 H 68 V 83 H 64 V 70 H 51.93 L 56.7,53.47 V 39.12 A 10.14,10.14 0 0 1 62.51,30 10.5,10.5 0 1 1 77.17,30 10.14,10.14 0 0 1 83,39.12 V 53.47 L 87.75,70 Z"
     id="path8"
     inkscape:connector-curvature="0"
     style="fill-opacity:1;fill:url(#linearGradient833)" />
</svg>
