<?xml version="1.0" encoding="UTF-8" standalone="no"?>
<!-- Created with Inkscape (http://www.inkscape.org/) -->

<svg
   xmlns:dc="http://purl.org/dc/elements/1.1/"
   xmlns:cc="http://creativecommons.org/ns#"
   xmlns:rdf="http://www.w3.org/1999/02/22-rdf-syntax-ns#"
   xmlns:svg="http://www.w3.org/2000/svg"
   xmlns="http://www.w3.org/2000/svg"
   xmlns:sodipodi="http://sodipodi.sourceforge.net/DTD/sodipodi-0.dtd"
   xmlns:inkscape="http://www.inkscape.org/namespaces/inkscape"
   width="32.347214mm"
   height="27.675777mm"
   viewBox="0 0 32.347214 27.675778"
   version="1.1"
   id="svg8"
   inkscape:version="0.92.3 (d244b95, 2018-08-02)"
   sodipodi:docname="best-views.svg"
   inkscape:export-filename="/home/rf/Documents/Webdesign-2018/oslo-trail-klubb/graphic-resources/icons/best-views.png"
   inkscape:export-xdpi="96"
   inkscape:export-ydpi="96">
  <defs
     id="defs2" />
  <sodipodi:namedview
     id="base"
     pagecolor="#ffffff"
     bordercolor="#666666"
     borderopacity="1.0"
     inkscape:pageopacity="0.0"
     inkscape:pageshadow="2"
     inkscape:zoom="1.979899"
     inkscape:cx="55.743373"
     inkscape:cy="50.789211"
     inkscape:document-units="mm"
     inkscape:current-layer="g890"
     showgrid="false"
     fit-margin-top="1"
     fit-margin-left="1"
     fit-margin-right="1"
     fit-margin-bottom="1"
     inkscape:window-width="1366"
     inkscape:window-height="713"
     inkscape:window-x="0"
     inkscape:window-y="27"
     inkscape:window-maximized="1" />
  <metadata
     id="metadata5">
    <rdf:RDF>
      <cc:Work
         rdf:about="">
        <dc:format>image/svg+xml</dc:format>
        <dc:type
           rdf:resource="http://purl.org/dc/dcmitype/StillImage" />
        <dc:title></dc:title>
      </cc:Work>
    </rdf:RDF>
  </metadata>
  <g
     inkscape:label="Layer 1"
     inkscape:groupmode="layer"
     id="layer1"
     transform="translate(-73.382954,-63.527372)">
    <g
       id="g838"
       transform="matrix(0.26458333,0,0,0.26458333,78.177366,69.588467)" />
    <g
       id="g890"
       transform="matrix(0.26458333,0,0,0.26458333,72.609998,59.246424)">
      <path
         id="path863"
         d="m 106.92,39.11 c 1.46,-5.2 -2.87,-11.66 -3.37,-12.38 a 2,2 0 0 0 -3.29,0 23.81,23.81 0 0 0 -3.26,7.2 C 96.12,33 95.2,32.12 94.25,31.28 A 6.93,6.93 0 0 0 93.52,26.4 C 90.85,21.7 83.22,20.19 82.36,20 A 2,2 0 0 0 80,22.36 c 0.16,0.86 1.67,8.49 6.37,11.13 a 6.84,6.84 0 0 0 3.38,0.89 7.58,7.58 0 0 0 1.68,-0.2 40.58,40.58 0 0 1 13.45,30.12 38.26,38.26 0 0 1 -27.42,36.78 l -2,0.56 A 52.26,52.26 0 0 0 64,105.8 52.26,52.26 0 0 0 52.58,101.64 l -2,-0.56 A 38.26,38.26 0 0 1 23.13,64.3 40.58,40.58 0 0 1 36.54,34.18 a 7.58,7.58 0 0 0 1.68,0.2 6.84,6.84 0 0 0 3.38,-0.89 c 4.7,-2.64 6.21,-10.27 6.37,-11.13 A 2,2 0 0 0 45.64,20 c -0.86,0.16 -8.49,1.67 -11.13,6.37 a 6.93,6.93 0 0 0 -0.73,4.88 c -1,0.84 -1.88,1.72 -2.75,2.65 a 23.81,23.81 0 0 0 -3.29,-7.2 2,2 0 0 0 -3.29,0 c -0.5,0.72 -4.83,7.18 -3.37,12.38 a 7,7 0 0 0 3.3,4.19 45.77,45.77 0 0 0 -2.1,4.61 23.11,23.11 0 0 0 -6.27,-6 2,2 0 0 0 -3,1.28 c -0.18,0.86 -1.66,8.49 1.7,12.71 A 7,7 0 0 0 19.57,58.48 43.75,43.75 0 0 0 19.16,63 C 15.24,60.48 9.38,60.62 8.62,60.65 a 2,2 0 0 0 -1.76,2.78 c 0.34,0.81 3.48,7.92 8.65,9.47 a 6.92,6.92 0 0 0 2,0.3 7,7 0 0 0 2.49,-0.48 q 0.4,2 1,3.85 c -4.37,-0.8 -9.38,1 -10,1.26 A 2,2 0 0 0 10.1,81 c 0.57,0.65 5.66,6.25 11,6.25 h 0.23 A 6.84,6.84 0 0 0 25.1,86 a 42.69,42.69 0 0 0 2.48,3.73 22.64,22.64 0 0 0 -8.4,3.41 2,2 0 0 0 0,3.29 c 0.62,0.44 5.49,3.8 10.17,3.8 a 8.38,8.38 0 0 0 2.16,-0.27 6.88,6.88 0 0 0 3.67,-2.43 41.08,41.08 0 0 0 14.31,7.39 l 2.07,0.58 a 60.46,60.46 0 0 1 8.75,2.9 14.67,14.67 0 0 0 -4.14,5.9 2.0014058,2.0014058 0 1 0 3.75,1.4 11.34,11.34 0 0 1 4.08,-5.17 11.34,11.34 0 0 1 4.13,5.17 2.0014058,2.0014058 0 0 0 3.75,-1.4 14.67,14.67 0 0 0 -4.14,-5.9 60.46,60.46 0 0 1 8.75,-2.9 l 2.07,-0.58 a 41.08,41.08 0 0 0 14.31,-7.39 6.88,6.88 0 0 0 3.66,2.47 8.38,8.38 0 0 0 2.16,0.27 c 4.68,0 9.56,-3.36 10.17,-3.8 a 2,2 0 0 0 0,-3.29 22.66,22.66 0 0 0 -8.4,-3.41 42.7,42.7 0 0 0 2.44,-3.77 6.84,6.84 0 0 0 3.79,1.27 h 0.23 c 5.31,0 10.4,-5.6 11,-6.25 a 2,2 0 0 0 -0.79,-3.19 c -0.67,-0.25 -5.68,-2.07 -10,-1.26 q 0.57,-1.89 1,-3.85 a 7,7 0 0 0 2.46,0.47 6.91,6.91 0 0 0 2,-0.3 c 5.17,-1.55 8.31,-8.67 8.65,-9.47 a 2,2 0 0 0 -1.76,-2.78 c -0.75,0 -6.62,-0.17 -10.54,2.35 a 43.76,43.76 0 0 0 -0.37,-4.49 7,7 0 0 0 4.86,-2.61 c 3.36,-4.22 1.88,-11.86 1.7,-12.71 a 2,2 0 0 0 -3,-1.28 23.11,23.11 0 0 0 -6.27,6 45.77,45.77 0 0 0 -2.1,-4.61 7,7 0 0 0 3.16,-4.18 z M 26.09,32 c 0.91,1.9 1.65,4.3 1.16,6 A 2.9,2.9 0 0 1 26.09,39.63 2.9,2.9 0 0 1 24.93,38 c -0.49,-1.71 0.26,-4.1 1.16,-6 z M 17.8,53.42 c -1.13,-1.42 -1.37,-3.91 -1.29,-6 1.58,1.44 3.21,3.36 3.43,5.15 a 2.89,2.89 0 0 1 -0.44,2 2.89,2.89 0 0 1 -1.7,-1.15 z m 3.39,29.86 c -1.81,0 -4,-1.25 -5.63,-2.59 2.11,-0.41 4.61,-0.56 6.18,0.34 A 2.9,2.9 0 0 1 23,82.54 2.9,2.9 0 0 1 21.19,83.28 Z M 38,28.37 c 0.89,-1.58 3.1,-2.74 5.11,-3.48 -0.74,2 -1.9,4.23 -3.47,5.12 a 2.89,2.89 0 0 1 -2,0.33 2.89,2.89 0 0 1 0.36,-1.97 z m -21.33,40.7 c -1.74,-0.52 -3.36,-2.43 -4.52,-4.24 2.13,0.28 4.55,0.93 5.76,2.28 a 2.9,2.9 0 0 1 0.76,1.89 2.91,2.91 0 0 1 -2,0.07 z m 13.77,27 c -1.75,0.47 -4.12,-0.31 -6.06,-1.24 2,-0.87 4.36,-1.59 6.09,-1.08 a 2.9,2.9 0 0 1 1.62,1.25 2.9,2.9 0 0 1 -1.65,1.1 z m 82,-15.42 c -1.67,1.34 -3.82,2.64 -5.61,2.59 a 2.9,2.9 0 0 1 -1.86,-0.73 2.9,2.9 0 0 1 1.3,-1.52 c 1.56,-0.86 4.05,-0.71 6.16,-0.31 z m -4.37,-28.17 c 0.22,-1.8 1.84,-3.71 3.42,-5.15 0.07,2.14 -0.16,4.64 -1.28,6 a 2.9,2.9 0 0 1 -1.7,1.06 2.89,2.89 0 0 1 -0.45,-1.87 z M 88.37,30 c -1.59,-0.89 -2.74,-3.11 -3.48,-5.12 2,0.74 4.23,1.9 5.12,3.48 a 2.89,2.89 0 0 1 0.33,2 A 2.89,2.89 0 0 1 88.37,30 Z m 9.2,66.1 A 2.9,2.9 0 0 1 95.91,95 2.9,2.9 0 0 1 97.52,93.82 c 1.74,-0.52 4.13,0.2 6.09,1.07 -1.92,0.89 -4.31,1.68 -6.05,1.21 z m 12.53,-29 c 1.21,-1.35 3.63,-2 5.75,-2.28 -1.16,1.8 -2.78,3.72 -4.5,4.24 a 2.89,2.89 0 0 1 -2,-0.11 2.9,2.9 0 0 1 0.74,-1.84 z M 101.9,32 c 0.89,1.94 1.65,4.34 1.17,6.07 a 2.9,2.9 0 0 1 -1.16,1.63 2.9,2.9 0 0 1 -1.16,-1.7 c -0.5,-1.71 0.25,-4.1 1.15,-6 z"
         inkscape:connector-curvature="0"
         style="fill:#f07b3f;fill-opacity:0.94117647" />
      <path
         id="path865"
         d="m 38,46 v 38 a 2,2 0 0 0 2,2 h 48 a 2,2 0 0 0 2,-2 V 46 A 2,2 0 0 0 88,44 H 40 a 2,2 0 0 0 -2,2 z m 4,2 H 86 V 82 H 42 Z"
         inkscape:connector-curvature="0"
         style="fill:#f07b3f;fill-opacity:0.94117647" />
      <path
         id="path867"
         d="m 81.25,61.44 a 2,2 0 0 0 -2.81,0.31 l -6.82,8.52 -5.46,-3.9 A 2,2 0 0 0 64,66.3 l -13,8 a 2,2 0 1 0 2,3.4 l 11.87,-7.3 5.92,4.23 a 2,2 0 0 0 2.72,-0.38 l 8,-10 a 2,2 0 0 0 -0.26,-2.81 z"
         inkscape:connector-curvature="0"
         style="fill:#f07b3f;fill-opacity:0.94117647" />
      <path
         id="path869"
         d="m 60,59 a 7,7 0 1 0 -7,7 7,7 0 0 0 7,-7 z m -10,0 a 3,3 0 1 1 3,3 3,3 0 0 1 -3,-3 z"
         inkscape:connector-curvature="0"
         style="fill:#f07b3f;fill-opacity:0.94117647" />
    </g>
  </g>
</svg>
