<?xml version="1.0" encoding="UTF-8" standalone="no"?>
<!-- Created with Inkscape (http://www.inkscape.org/) -->

<svg
   xmlns:dc="http://purl.org/dc/elements/1.1/"
   xmlns:cc="http://creativecommons.org/ns#"
   xmlns:rdf="http://www.w3.org/1999/02/22-rdf-syntax-ns#"
   xmlns:svg="http://www.w3.org/2000/svg"
   xmlns="http://www.w3.org/2000/svg"
   xmlns:sodipodi="http://sodipodi.sourceforge.net/DTD/sodipodi-0.dtd"
   xmlns:inkscape="http://www.inkscape.org/namespaces/inkscape"
   width="16.829895mm"
   height="16.549437mm"
   viewBox="0 0 16.829895 16.549437"
   version="1.1"
   id="svg8"
   inkscape:version="0.92.3 (d244b95, 2018-08-02)"
   sodipodi:docname="map-settings.svg">
  <defs
     id="defs2" />
  <sodipodi:namedview
     id="base"
     pagecolor="#ffffff"
     bordercolor="#666666"
     borderopacity="1.0"
     inkscape:pageopacity="0.0"
     inkscape:pageshadow="2"
     inkscape:zoom="2.8"
     inkscape:cx="5.1630858"
     inkscape:cy="-19.575098"
     inkscape:document-units="mm"
     inkscape:current-layer="g841"
     showgrid="false"
     fit-margin-top="1"
     fit-margin-left="1"
     fit-margin-right="1"
     fit-margin-bottom="1"
     inkscape:window-width="1280"
     inkscape:window-height="996"
     inkscape:window-x="1366"
     inkscape:window-y="0"
     inkscape:window-maximized="1" />
  <metadata
     id="metadata5">
    <rdf:RDF>
      <cc:Work
         rdf:about="">
        <dc:format>image/svg+xml</dc:format>
        <dc:type
           rdf:resource="http://purl.org/dc/dcmitype/StillImage" />
        <dc:title></dc:title>
      </cc:Work>
    </rdf:RDF>
  </metadata>
  <g
     inkscape:label="Layer 1"
     inkscape:groupmode="layer"
     id="layer1"
     transform="translate(-94.394576,-110.55991)">
    <g
       id="g841"
       transform="matrix(0.26458333,0,0,0.26458333,95.394576,111.55991)">
      <g
         id="g821">
        <path
           id="path815"
           d="m 55.19,39.86 -1.44,-0.28 c -0.68,-0.13 -1.21,-0.57 -1.46,-1.22 -0.25,-0.64 -0.16,-1.33 0.25,-1.88 l 0.91,-1.24 c 0.29,-0.4 0.25,-0.95 -0.1,-1.3 l -1.96,-1.96 c -0.34,-0.34 -0.87,-0.39 -1.27,-0.12 l -1.22,0.82 c -0.33,0.22 -0.71,0.34 -1.1,0.34 -0.84,0 -1.79,-0.58 -1.96,-1.68 l -0.23,-1.51 c -0.08,-0.49 -0.5,-0.85 -0.99,-0.85 h -2.77 c -0.48,0 -0.89,0.34 -0.98,0.81 l -0.36,1.87 c -0.2,1.05 -1.13,1.6 -1.94,1.6 -0.39,0 -0.77,-0.12 -1.1,-0.34 L 35.9,31.86 c -0.4,-0.27 -0.93,-0.22 -1.27,0.12 l -1.96,1.96 c -0.35,0.35 -0.39,0.9 -0.1,1.3 l 0.91,1.24 c 0.41,0.56 0.5,1.24 0.25,1.88 -0.25,0.64 -0.79,1.09 -1.46,1.22 l -1.44,0.28 c -0.47,0.09 -0.81,0.5 -0.81,0.98 v 2.77 c 0,0.49 0.36,0.91 0.85,0.99 l 1.51,0.23 c 0.68,0.11 1.23,0.53 1.51,1.16 0.28,0.63 0.21,1.32 -0.17,1.89 L 32.9,49.1 c -0.27,0.4 -0.22,0.93 0.12,1.27 l 1.96,1.96 c 0.35,0.35 0.9,0.39 1.3,0.1 l 1.24,-0.91 c 0.34,-0.25 0.74,-0.38 1.16,-0.38 0.81,0 1.74,0.55 1.94,1.6 l 0.28,1.44 c 0.09,0.47 0.5,0.81 0.98,0.81 h 2.77 c 0.49,0 0.91,-0.36 0.99,-0.85 l 0.16,-1.07 c 0.17,-1.1 1.11,-1.68 1.96,-1.68 0.41,0 0.81,0.13 1.16,0.39 l 0.87,0.64 c 0.4,0.29 0.95,0.25 1.3,-0.1 l 1.96,-1.96 c 0.34,-0.34 0.39,-0.87 0.12,-1.27 l -0.82,-1.22 c -0.39,-0.57 -0.45,-1.26 -0.17,-1.89 0.28,-0.63 0.83,-1.05 1.51,-1.16 l 1.51,-0.23 c 0.49,-0.08 0.85,-0.5 0.85,-0.99 V 40.83 C 56,40.36 55.66,39.95 55.19,39.86 Z m -1.19,2.89 -0.67,0.1 c -1.35,0.21 -2.49,1.08 -3.04,2.34 -0.55,1.26 -0.42,2.68 0.35,3.82 l 0.36,0.53 -0.77,0.77 -0.18,-0.13 c -0.69,-0.5 -1.5,-0.77 -2.34,-0.77 -1.98,0 -3.63,1.42 -3.93,3.37 L 43.76,53 h -1.09 l -0.12,-0.63 c -0.36,-1.87 -2,-3.22 -3.91,-3.22 -0.84,0 -1.65,0.27 -2.34,0.77 l -0.54,0.4 -0.77,-0.77 0.36,-0.53 c 0.77,-1.13 0.9,-2.56 0.35,-3.82 -0.55,-1.25 -1.68,-2.13 -3.04,-2.34 L 32,42.75 v -1.09 l 0.63,-0.12 c 1.35,-0.26 2.45,-1.17 2.95,-2.45 0.5,-1.28 0.32,-2.7 -0.49,-3.8 l -0.4,-0.54 0.77,-0.77 0.89,0.6 c 0.66,0.45 1.43,0.69 2.22,0.69 1.91,0 3.55,-1.36 3.91,-3.22 L 42.68,31 h 1.09 l 0.1,0.67 c 0.3,1.95 1.96,3.37 3.93,3.37 0.79,0 1.56,-0.24 2.22,-0.69 l 0.53,-0.36 0.77,0.77 -0.4,0.54 c -0.81,1.1 -0.99,2.52 -0.49,3.8 0.5,1.27 1.6,2.19 2.95,2.45 L 54,41.67 Z"
           inkscape:connector-curvature="0" />
        <path
           id="path817"
           d="m 43,37 c -2.76,0 -5,2.24 -5,5 0,2.76 2.24,5 5,5 2.76,0 5,-2.24 5,-5 0,-2.76 -2.24,-5 -5,-5 z m 0,8 c -1.65,0 -3,-1.35 -3,-3 0,-1.65 1.35,-3 3,-3 1.65,0 3,1.35 3,3 0,1.65 -1.35,3 -3,3 z"
           inkscape:connector-curvature="0" />
        <path
           id="path819"
           d="M 26.39,46.08 20,43.34 V 2.66 L 35,10.6 V 25 c 0,0.55 0.45,1 1,1 0.55,0 1,-0.45 1,-1 V 10.67 L 52,4.49 V 28 c 0,0.55 0.45,1 1,1 0.55,0 1,-0.45 1,-1 V 3 C 54,2.67 53.83,2.35 53.56,2.17 53.28,1.99 52.93,1.95 52.62,2.08 L 36.05,8.89 19.47,0.11 C 19.46,0.1 19.44,0.1 19.43,0.09 19.38,0.07 19.33,0.05 19.28,0.04 19.25,0.03 19.23,0.02 19.2,0.02 19.14,0.01 19.09,0 19.03,0 19,0 18.98,0 18.95,0 18.9,0 18.85,0.01 18.8,0.02 c -0.03,0.01 -0.07,0.01 -0.1,0.02 -0.01,0 -0.01,0 -0.02,0 l -18,6 C 0.28,6.18 0,6.57 0,7 v 43 c 0,0.32 0.15,0.62 0.42,0.81 C 0.59,50.93 0.79,51 1,51 1.11,51 1.21,50.98 1.32,50.95 l 17.64,-5.88 6.65,2.85 C 25.73,47.97 25.87,48 26,48 c 0.39,0 0.76,-0.23 0.92,-0.61 0.22,-0.51 -0.02,-1.09 -0.53,-1.31 z M 2,7.72 18,2.39 V 43.28 L 2,48.61 Z"
           inkscape:connector-curvature="0" />
      </g>
    </g>
  </g>
</svg>
