<?xml version="1.0" encoding="UTF-8" standalone="no"?>
<!-- Created with Inkscape (http://www.inkscape.org/) -->

<svg
   xmlns:dc="http://purl.org/dc/elements/1.1/"
   xmlns:cc="http://creativecommons.org/ns#"
   xmlns:rdf="http://www.w3.org/1999/02/22-rdf-syntax-ns#"
   xmlns:svg="http://www.w3.org/2000/svg"
   xmlns="http://www.w3.org/2000/svg"
   xmlns:sodipodi="http://sodipodi.sourceforge.net/DTD/sodipodi-0.dtd"
   xmlns:inkscape="http://www.inkscape.org/namespaces/inkscape"
   width="17.875mm"
   height="17.875mm"
   viewBox="0 0 17.875 17.875"
   version="1.1"
   id="svg8"
   inkscape:version="0.92.3 (d244b95, 2018-08-02)"
   sodipodi:docname="map-layer-settings-orange.svg"
   inkscape:export-filename="/home/rf/Documents/Webdesign-2018/oslo-trail-klubb/graphic-resources/icons/offline-first.png"
   inkscape:export-xdpi="96"
   inkscape:export-ydpi="96">
  <defs
     id="defs2">
    <style
       id="style911">.cls-1{fill:none;stroke:#000;stroke-linecap:round;stroke-linejoin:round;stroke-width:2px;}</style>
  </defs>
  <sodipodi:namedview
     id="base"
     pagecolor="#ffffff"
     bordercolor="#666666"
     borderopacity="1.0"
     inkscape:pageopacity="0.0"
     inkscape:pageshadow="2"
     inkscape:zoom="1.979899"
     inkscape:cx="-31.101248"
     inkscape:cy="-123.52318"
     inkscape:document-units="mm"
     inkscape:current-layer="g1244"
     showgrid="false"
     fit-margin-top="1"
     fit-margin-left="1"
     fit-margin-right="1"
     fit-margin-bottom="1"
     inkscape:window-width="1280"
     inkscape:window-height="996"
     inkscape:window-x="1366"
     inkscape:window-y="0"
     inkscape:window-maximized="1" />
  <metadata
     id="metadata5">
    <rdf:RDF>
      <cc:Work
         rdf:about="">
        <dc:format>image/svg+xml</dc:format>
        <dc:type
           rdf:resource="http://purl.org/dc/dcmitype/StillImage" />
        <dc:title></dc:title>
      </cc:Work>
    </rdf:RDF>
  </metadata>
  <g
     inkscape:label="Layer 1"
     inkscape:groupmode="layer"
     id="layer1"
     transform="translate(-83.264385,-36.161526)">
    <g
       id="g838"
       transform="matrix(0.26458333,0,0,0.26458333,78.177366,69.588467)" />
    <g
       id="g890"
       transform="matrix(0.26458333,0,0,0.26458333,72.609998,59.246424)">
      <g
         id="g990"
         transform="translate(25.882738,21.586408)">
        <g
           id="g1067"
           transform="translate(8.0718733,-13.67082)">
          <g
             id="g1132"
             transform="translate(-17.032329,-36.30644)">
            <g
               id="g1191"
               transform="translate(13.875139,-34.157054)">
              <g
                 id="g1244"
                 transform="translate(5.6900747,-22.351842)">
                <g
                   transform="matrix(3.7795276,0,0,3.7795276,-353.758,-383.14474)"
                   id="layer1-3"
                   inkscape:label="Layer 1"
                   style="fill:#f07b3f;fill-opacity:1">
                  <g
                     transform="matrix(0.26458333,0,0,0.26458333,95.394576,111.55991)"
                     id="g841"
                     style="fill:#f07b3f;fill-opacity:1">
                    <g
                       transform="translate(4.1945349,-13.473322)"
                       id="g4623"
                       style="fill:#f07b3f;fill-opacity:1">
                      <g
                         transform="translate(-3.4223853,-23.596431)"
                         id="g4683"
                         style="fill:#f07b3f;fill-opacity:1">
                        <g
                           style="fill:#f07b3f;fill-opacity:1;fill-rule:evenodd;stroke:none;stroke-width:1"
                           id="g4660">
                          <g
                             style="fill:#f07b3f;fill-opacity:1;fill-rule:nonzero"
                             id="g4658">
                            <path
                               inkscape:connector-curvature="0"
                               d="m 25,21 c 0,-2.209139 -1.790861,-4 -4,-4 -2.209139,0 -4,1.790861 -4,4 0,2.209139 1.790861,4 4,4 2.209139,0 4,-1.790861 4,-4 z m -6,0 c 0,-1.10457 0.89543,-2 2,-2 1.104569,0 2,0.89543 2,2 0,1.104569 -0.895431,2 -2,2 -1.10457,0 -2,-0.895431 -2,-2 z"
                               id="path4648"
                               style="fill:#f07b3f;fill-opacity:1" />
                            <path
                               inkscape:connector-curvature="0"
                               d="m 16,36 c -0.552285,0 -1,0.447715 -1,1 0,0.552285 0.447715,1 1,1 h 10 c 0.552285,0 1,-0.447715 1,-1 0,-0.552285 -0.447715,-1 -1,-1 H 23 C 25.288,32.831 30,25.681 30,20.579 29.875039,15.72855 25.850871,11.892624 21,12 c -4.850871,-0.107376 -8.875039,3.72855 -9,8.579 0,5.1 4.716,12.252 7,15.421 z m 5,-22 c 3.746733,-0.108327 6.876017,2.832753 7,6.579 0,4.758 -5.024,12.069 -7,14.76 -1.976,-2.691 -7,-10 -7,-14.76 0.123983,-3.746247 3.253267,-6.687327 7,-6.579 z"
                               id="path4650"
                               style="fill:#f07b3f;fill-opacity:1" />
                            <path
                               inkscape:connector-curvature="0"
                               d="M 30,44 H 12 c -0.552285,0 -1,0.447715 -1,1 0,0.552285 0.447715,1 1,1 h 18 c 0.552285,0 1,-0.447715 1,-1 0,-0.552285 -0.447715,-1 -1,-1 z"
                               id="path4652"
                               style="fill:#f07b3f;fill-opacity:1" />
                            <path
                               inkscape:connector-curvature="0"
                               d="m 25,49 h -8 c -0.552285,0 -1,0.447715 -1,1 0,0.552285 0.447715,1 1,1 h 8 c 0.552285,0 1,-0.447715 1,-1 0,-0.552285 -0.447715,-1 -1,-1 z"
                               id="path4654"
                               style="fill:#f07b3f;fill-opacity:1" />
                            <path
                               inkscape:connector-curvature="0"
                               d="M 58.916,7.174 C 58.246019,6.8287082 57.438814,6.8894033 56.828,7.331 L 48,13.683 38,6.488 V 5 C 37.996694,2.2399469 35.760053,0.00330612 33,0 H 1 C 0.44771525,0 0,0.44771525 0,1 v 58 c 0,0.552285 0.44771525,1 1,1 h 32 c 2.760053,-0.0033 4.996694,-2.239947 5,-5 v -4.5 l 8.24,5.93 c 1.051664,0.75681 2.469336,0.75681 3.521,0 l 9,-6.476 C 59.536078,49.39586 59.996776,48.500121 60,47.545 V 8.943 C 60.001,8.196138 59.581912,7.51218 58.916,7.174 Z M 36,55 c 0,1.656854 -1.343146,3 -3,3 H 6 V 53 C 6,52.447715 5.5522847,52 5,52 4.4477152,52 4,52.447715 4,53 v 5 H 2 V 2 h 2 v 47 c 0,0.552285 0.4477152,1 1,1 0.5522847,0 1,-0.447715 1,-1 V 2 h 27 c 1.656854,0 3,1.3431458 3,3 z m 22,-7.455 c -0.0014,0.313013 -0.152775,0.606384 -0.407,0.789 l -9,6.476 c -0.354514,0.254065 -0.831486,0.254065 -1.186,0 L 38,48.041 V 8.952 l 9,6.475 V 51 c 0,0.552285 0.447715,1 1,1 0.552285,0 1,-0.447715 1,-1 V 15.427 l 9,-6.484 z"
                               id="path4656"
                               style="fill:#f07b3f;fill-opacity:1" />
                          </g>
                        </g>
                      </g>
                    </g>
                  </g>
                </g>
              </g>
            </g>
          </g>
        </g>
      </g>
    </g>
  </g>
</svg>
