<?xml version="1.0" encoding="UTF-8" standalone="no"?>
<!-- Created with Inkscape (http://www.inkscape.org/) -->

<svg
   xmlns:dc="http://purl.org/dc/elements/1.1/"
   xmlns:cc="http://creativecommons.org/ns#"
   xmlns:rdf="http://www.w3.org/1999/02/22-rdf-syntax-ns#"
   xmlns:svg="http://www.w3.org/2000/svg"
   xmlns="http://www.w3.org/2000/svg"
   xmlns:sodipodi="http://sodipodi.sourceforge.net/DTD/sodipodi-0.dtd"
   xmlns:inkscape="http://www.inkscape.org/namespaces/inkscape"
   width="16.5415mm"
   height="16.102291mm"
   viewBox="0 0 16.5415 16.102291"
   version="1.1"
   id="svg8"
   sodipodi:docname="map-layers-2.svg"
   inkscape:export-filename="/home/rf/Documents/Webdesign-2018/oslo-trail-klubb/graphic-resources/icons/map-layers.png"
   inkscape:export-xdpi="96"
   inkscape:export-ydpi="96"
   inkscape:version="0.92.3 (d244b95, 2018-08-02)">
  <defs
     id="defs2" />
  <sodipodi:namedview
     id="base"
     pagecolor="#ffffff"
     bordercolor="#666666"
     borderopacity="1.0"
     inkscape:pageopacity="0.0"
     inkscape:pageshadow="2"
     inkscape:zoom="2.8"
     inkscape:cx="17.644277"
     inkscape:cy="-13.320344"
     inkscape:document-units="mm"
     inkscape:current-layer="g4769"
     showgrid="false"
     fit-margin-top="1"
     fit-margin-left="1"
     fit-margin-right="1"
     fit-margin-bottom="1"
     inkscape:window-width="1280"
     inkscape:window-height="996"
     inkscape:window-x="1366"
     inkscape:window-y="0"
     inkscape:window-maximized="1" />
  <metadata
     id="metadata5">
    <rdf:RDF>
      <cc:Work
         rdf:about="">
        <dc:format>image/svg+xml</dc:format>
        <dc:type
           rdf:resource="http://purl.org/dc/dcmitype/StillImage" />
        <dc:title></dc:title>
      </cc:Work>
    </rdf:RDF>
  </metadata>
  <g
     inkscape:label="Layer 1"
     inkscape:groupmode="layer"
     id="layer1"
     transform="translate(-94.683035,-87.715529)">
    <g
       id="g841"
       transform="matrix(0.26458333,0,0,0.26458333,95.394576,111.55991)">
      <g
         id="g4623"
         transform="translate(4.1945349,-13.473322)">
        <g
           id="g4683"
           transform="translate(-3.4223853,-23.596431)">
          <g
             id="g4731"
             transform="translate(-6.2795269,-22.239088)">
            <g
               id="g4769"
               transform="translate(6.5976166,-27.032128)">
              <path
                 id="path4752"
                 d="M 45.3,21.12 54.96,15.6 27.48,0 0,15.6 9.66,21.12 0,26.6 9.66,32.12 0,37.6 27.48,53.3 54.96,37.6 45.3,32.12 54.96,26.6 Z M 27.48,2.3 50.92,15.61 27.48,29 4.04,15.61 Z M 11.67,22.27 27.47,31.3 43.27,22.27 50.9,26.6 27.48,40 4.04,26.61 Z M 50.91,37.61 27.48,51 4.04,37.61 l 7.63,-4.33 15.8,9.03 15.8,-9.03 z"
                 inkscape:connector-curvature="0"
                 style="fill:#000000" />
            </g>
          </g>
        </g>
      </g>
    </g>
  </g>
</svg>
