<?xml version="1.0" encoding="UTF-8" standalone="no"?>
<!-- Created with Inkscape (http://www.inkscape.org/) -->

<svg
   xmlns:dc="http://purl.org/dc/elements/1.1/"
   xmlns:cc="http://creativecommons.org/ns#"
   xmlns:rdf="http://www.w3.org/1999/02/22-rdf-syntax-ns#"
   xmlns:svg="http://www.w3.org/2000/svg"
   xmlns="http://www.w3.org/2000/svg"
   xmlns:sodipodi="http://sodipodi.sourceforge.net/DTD/sodipodi-0.dtd"
   xmlns:inkscape="http://www.inkscape.org/namespaces/inkscape"
   width="17.874947mm"
   height="17.611687mm"
   viewBox="0 0 17.874946 17.611687"
   version="1.1"
   id="svg8"
   sodipodi:docname="markers.svg"
   inkscape:export-filename="/home/rf/Documents/Webdesign-2018/oslo-trail-klubb/graphic-resources/icons/map-layers-2.png"
   inkscape:export-xdpi="96"
   inkscape:export-ydpi="96"
   inkscape:version="0.92.3 (d244b95, 2018-08-02)">
  <defs
     id="defs2" />
  <sodipodi:namedview
     id="base"
     pagecolor="#ffffff"
     bordercolor="#666666"
     borderopacity="1.0"
     inkscape:pageopacity="0.0"
     inkscape:pageshadow="2"
     inkscape:zoom="2.8"
     inkscape:cx="21.780847"
     inkscape:cy="-34.485668"
     inkscape:document-units="mm"
     inkscape:current-layer="g4835"
     showgrid="false"
     fit-margin-top="1"
     fit-margin-left="1"
     fit-margin-right="1"
     fit-margin-bottom="1"
     inkscape:window-width="1280"
     inkscape:window-height="996"
     inkscape:window-x="1366"
     inkscape:window-y="0"
     inkscape:window-maximized="1" />
  <metadata
     id="metadata5">
    <rdf:RDF>
      <cc:Work
         rdf:about="">
        <dc:format>image/svg+xml</dc:format>
        <dc:type
           rdf:resource="http://purl.org/dc/dcmitype/StillImage" />
        <dc:title></dc:title>
      </cc:Work>
    </rdf:RDF>
  </metadata>
  <g
     inkscape:label="Layer 1"
     inkscape:groupmode="layer"
     id="layer1"
     transform="translate(-93.588567,-80.606142)">
    <g
       id="g841"
       transform="matrix(0.26458333,0,0,0.26458333,95.394576,111.55991)">
      <g
         id="g4623"
         transform="translate(4.1945349,-13.473322)">
        <g
           id="g4683"
           transform="translate(-3.4223853,-23.596431)">
          <g
             id="g4731"
             transform="translate(-6.2795269,-22.239088)">
            <g
               id="g4769"
               transform="translate(6.5976166,-27.032128)">
              <g
                 id="g4835"
                 transform="translate(-4.1361706,-26.865564)">
                <g
                   id="g4810"
                   style="fill:none;fill-rule:evenodd;stroke:none;stroke-width:1">
                  <g
                     id="g4808"
                     transform="translate(0,-1)"
                     style="fill:#000000;fill-rule:nonzero">
                    <path
                       id="path4794"
                       d="m 19.684,41.569 c 2.471,3.484 4.938,6.6 6.573,8.607 0.238,0.292 0.461,0.563 0.677,0.824 H 22 c -0.552285,0 -1,0.447715 -1,1 0,0.552285 0.447715,1 1,1 h 16 c 0.552285,0 1,-0.447715 1,-1 0,-0.552285 -0.447715,-1 -1,-1 h -4.934 c 0.216,-0.261 0.439,-0.532 0.678,-0.824 1.634,-2 4.1,-5.123 6.572,-8.607 2.452573,-3.387267 4.660185,-6.945312 6.606,-10.647 C 48.964,26.912 50,23.583 50,21.027 50.00678,15.715953 47.899345,10.620616 44.143,6.866 43.892108,6.605872 43.520381,6.5013578 43.170691,6.5926267 c -0.34969,0.091269 -0.622925,0.3641179 -0.714689,0.7136787 -0.09176,0.3495609 0.01223,0.721435 0.271998,0.9726946 3.381111,3.380211 5.278012,7.967027 5.272,12.748 0,2.238 -0.962,5.262 -2.86,8.987 -1.901885,3.615817 -4.059364,7.091309 -6.456,10.4 -2.438,3.439 -4.875,6.52 -6.49,8.5 -0.537,0.658 -1.02,1.24 -1.432,1.732 -0.19235,0.219589 -0.47008,0.345523 -0.762,0.345523 -0.291921,0 -0.56965,-0.125934 -0.762,-0.345523 -0.412,-0.492 -0.895,-1.074 -1.432,-1.732 -1.615,-1.979 -4.052,-5.06 -6.49,-8.5 C 18.919364,37.105309 16.761885,33.629817 14.86,30.014 12.96,26.289 12,23.265 12,21.027 11.999452,13.783801 16.331104,7.2426141 23,4.416 c 4.481002,-1.8789554 9.528998,-1.8789554 14.01,0 0.329042,0.1395122 0.707517,0.092885 0.992859,-0.1223171 0.285342,-0.2152023 0.4342,-0.5662855 0.3905,-0.921 C 38.34966,3.0179684 38.120042,2.7135122 37.791,2.574 27.607685,-1.7211735 15.870371,3.0500344 11.572,13.232 10.52962,15.698331 9.9949766,18.349441 10,21.027 c 0,2.556 1.036,5.885 3.078,9.9 1.946022,3.699973 4.153631,7.256341 6.606,10.642 z"
                       inkscape:connector-curvature="0" />
                    <path
                       id="path4796"
                       d="m 30,12 c 0.552285,0 1,-0.447715 1,-1 0,-0.552285 -0.447715,-1 -1,-1 -4.770747,-6.47e-5 -8.877179,3.369907 -9.807964,8.048973 -0.930785,4.679067 1.573313,9.364041 5.980887,11.189778 4.407574,1.825737 9.491052,0.283742 12.141579,-3.682961 2.650527,-3.966702 2.129893,-9.25333 -1.243502,-12.62679 -0.251075,-0.259957 -0.622878,-0.364213 -0.972507,-0.272697 -0.34963,0.09152 -0.622675,0.36456 -0.71419,0.71419 -0.09152,0.349629 0.01274,0.721433 0.272697,0.972507 2.698804,2.698664 3.115466,6.927937 0.995175,10.101373 -2.120292,3.173436 -6.18701,4.407193 -9.713121,2.946758 -3.526112,-1.460434 -5.52955,-5.208312 -4.785097,-8.951589 C 22.898409,14.696266 26.183414,12.000139 30,12 Z"
                       inkscape:connector-curvature="0" />
                    <path
                       id="path4798"
                       d="m 3.1,60 h 53.8 c 1.104632,0.01339 2.131834,-0.565842 2.692,-1.518 0.531899,-0.894483 0.543729,-2.005393 0.031,-2.911 l -6.15,-11 C 52.916959,43.59368 51.876404,42.992904 50.752,43 h -7.127 c -0.552285,0 -1,0.447715 -1,1 0,0.552285 0.447715,1 1,1 h 7.127 c 0.400357,-0.0077 0.77379,0.200962 0.977,0.546 l 6.148,11 c 0.167411,0.286149 0.163953,0.641166 -0.009,0.924 C 57.663708,57.807456 57.294358,58.009683 56.9,58 H 3.1 C 2.7059958,58.009321 2.3371127,57.807141 2.133,57.47 1.9600467,57.187166 1.9565888,56.832149 2.124,56.546 l 6.148,-11 C 8.4748807,45.201122 8.8479447,44.99242 9.248,45 h 7.127 c 0.552285,0 1,-0.447715 1,-1 0,-0.552285 -0.447715,-1 -1,-1 H 9.248 C 8.1229941,42.9926 7.0817028,43.593363 6.525,44.571 l -6.149,11 c -0.51272915,0.905607 -0.50089878,2.016517 0.031,2.911 C 0.96734436,59.434471 1.9950125,60.01375 3.1,60 Z"
                       inkscape:connector-curvature="0" />
                    <path
                       id="path4800"
                       d="m 49,48 h -4 c -0.197479,3.12e-4 -0.390499,0.05874 -0.555,0.168 l -3,2 c -0.459501,0.306518 -0.583518,0.927499 -0.277,1.387 0.306518,0.459501 0.927499,0.583518 1.387,0.277 L 45.3,50 H 49 c 0.552285,0 1,-0.447715 1,-1 0,-0.552285 -0.447715,-1 -1,-1 z"
                       inkscape:connector-curvature="0" />
                    <path
                       id="path4802"
                       d="m 43,55 c 0,0.552285 0.447715,1 1,1 h 8 c 0.552285,0 1,-0.447715 1,-1 0,-0.552285 -0.447715,-1 -1,-1 h -8 c -0.552285,0 -1,0.447715 -1,1 z"
                       inkscape:connector-curvature="0" />
                    <path
                       id="path4804"
                       d="m 18,52 c 0.440877,5.4e-4 0.83009,-0.28771 0.958127,-0.709586 C 19.086163,50.868538 18.92281,50.412587 18.556,50.168 l -3,-2 C 15.391216,48.058552 15.19782,48.000116 15,48 h -4 c -0.552285,0 -1,0.447715 -1,1 0,0.552285 0.447715,1 1,1 h 3.7 l 2.748,1.832 C 17.611496,51.941021 17.80349,51.999453 18,52 Z"
                       inkscape:connector-curvature="0" />
                    <path
                       id="path4806"
                       d="m 8,54 c -0.5522848,0 -1,0.447715 -1,1 0,0.552285 0.4477152,1 1,1 h 8 c 0.552285,0 1,-0.447715 1,-1 0,-0.552285 -0.447715,-1 -1,-1 z"
                       inkscape:connector-curvature="0" />
                  </g>
                </g>
              </g>
            </g>
          </g>
        </g>
      </g>
    </g>
  </g>
</svg>
