<?xml version="1.0" encoding="UTF-8" standalone="no"?>
<!-- Created with Inkscape (http://www.inkscape.org/) -->

<svg
   xmlns:dc="http://purl.org/dc/elements/1.1/"
   xmlns:cc="http://creativecommons.org/ns#"
   xmlns:rdf="http://www.w3.org/1999/02/22-rdf-syntax-ns#"
   xmlns:svg="http://www.w3.org/2000/svg"
   xmlns="http://www.w3.org/2000/svg"
   xmlns:sodipodi="http://sodipodi.sourceforge.net/DTD/sodipodi-0.dtd"
   xmlns:inkscape="http://www.inkscape.org/namespaces/inkscape"
   width="25.643318mm"
   height="26.502533mm"
   viewBox="0 0 25.643318 26.502533"
   version="1.1"
   id="svg8"
   inkscape:version="0.92.3 (d244b95, 2018-08-02)"
   sodipodi:docname="new-routes.svg">
  <defs
     id="defs2" />
  <sodipodi:namedview
     id="base"
     pagecolor="#ffffff"
     bordercolor="#666666"
     borderopacity="1.0"
     inkscape:pageopacity="0.0"
     inkscape:pageshadow="2"
     inkscape:zoom="1.979899"
     inkscape:cx="-13.416437"
     inkscape:cy="-25.272814"
     inkscape:document-units="mm"
     inkscape:current-layer="g838"
     showgrid="false"
     fit-margin-top="1"
     fit-margin-left="1"
     fit-margin-right="1"
     fit-margin-bottom="1"
     inkscape:window-width="1280"
     inkscape:window-height="996"
     inkscape:window-x="1366"
     inkscape:window-y="0"
     inkscape:window-maximized="1" />
  <metadata
     id="metadata5">
    <rdf:RDF>
      <cc:Work
         rdf:about="">
        <dc:format>image/svg+xml</dc:format>
        <dc:type
           rdf:resource="http://purl.org/dc/dcmitype/StillImage" />
        <dc:title></dc:title>
      </cc:Work>
    </rdf:RDF>
  </metadata>
  <g
     inkscape:label="Layer 1"
     inkscape:groupmode="layer"
     id="layer1"
     transform="translate(-78.58528,-69.565573)">
    <g
       id="g838"
       transform="matrix(0.26458333,0,0,0.26458333,78.177366,69.588467)">
      <g
         id="g819"
         style="fill:#f07b3f;fill-opacity:0.94117647">
        <path
           id="path815"
           d="m 94.288,48.492 c -1.518,-2.044 -5.233,-3.761 -9.818,-2.696 -0.502,0.117 -0.977,0.264 -1.429,0.437 v -10.07 h 3.881 V 20.522 H 72.319 c 0.525,-0.351 1.027,-0.73 1.492,-1.145 2.011,-1.793 3.229,-3.942 3.526,-6.216 C 77.641,10.828 76.92,8.548 75.306,6.739 73.579,4.803 71.095,3.693 68.491,3.693 c -2.35,0 -4.569,0.873 -6.42,2.523 -1.973,1.76 -3.336,4.286 -4.277,6.821 -0.681,-1.575 -1.59,-3.055 -2.826,-4.158 -1.515,-1.351 -3.411,-2.094 -5.339,-2.094 -2.173,0 -4.247,0.927 -5.689,2.543 -1.354,1.518 -1.959,3.434 -1.703,5.396 0.247,1.894 1.256,3.678 2.917,5.158 0.254,0.227 0.523,0.43 0.789,0.64 H 28.6 v 15.641 h 3.879 v 16.363 c -1.995,0.885 -3.883,2.244 -5.234,3.505 l -6.343,6.343 -2.468,-2.468 c -0.75,-0.75 -2.078,-0.75 -2.828,0 l -9.699,9.7 c -0.781,0.781 -0.781,2.047 0,2.828 l 23.281,23.281 c 0.375,0.375 0.884,0.586 1.414,0.586 0.53,0 1.039,-0.211 1.414,-0.586 l 9.699,-9.7 c 0.781,-0.781 0.781,-2.047 0,-2.828 l -2.297,-2.298 c 0.237,-0.065 0.517,-0.104 0.881,-0.104 h 27.162 c 3.623,0 16.886,-14.105 17.014,-14.25 1.528,-1.713 8.153,-11.638 10.046,-16.066 0.279,-0.653 0.191,-1.406 -0.233,-1.977 z m -15.247,0.527 c -1.236,1.336 -2.307,3.007 -3.361,5.002 l -6.492,3.37 c -0.922,-0.825 -2.126,-1.45 -3.607,-1.748 V 36.163 H 79.042 V 49.019 Z M 53.939,24.522 h 1.681 l -0.004,0.051 2.135,-0.05 2.06,0.064 -0.002,-0.065 h 1.771 v 30.923 h -7.641 z m 28.983,7.641 H 65.58 V 24.522 H 82.922 Z M 64.733,9.202 c 1.106,-0.987 2.405,-1.508 3.758,-1.508 1.466,0 2.862,0.623 3.831,1.709 0.84,0.942 1.203,2.063 1.049,3.242 -0.17,1.307 -0.938,2.603 -2.222,3.748 -2.96,2.64 -8.122,3.6 -11.114,3.944 0.552,-3.43 1.922,-8.659 4.698,-11.135 z m -17.808,2.79 c 0.684,-0.767 1.669,-1.207 2.704,-1.207 0.959,0 1.885,0.373 2.677,1.08 1.992,1.777 2.904,5.705 3.261,8.472 -3.1,-0.431 -5.649,-1.565 -7.75,-3.439 -0.921,-0.82 -1.494,-1.776 -1.613,-2.69 -0.107,-0.816 0.135,-1.561 0.721,-2.216 z M 32.6,24.522 h 17.339 v 7.641 H 32.6 Z M 49.939,36.163 V 52.947 C 48.765,52.175 47.496,51.564 46.12,51.564 H 36.479 V 36.163 Z M 30.602,91.474 10.149,71.021 17.02,64.149 37.473,84.602 Z M 81.491,63.872 C 79.206,66.43 69.509,75.832 67.259,76.786 h -26.96 c -1.807,0 -2.999,0.538 -3.836,1.149 L 23.73,65.202 30.023,58.908 c 1.783,-1.661 4.553,-3.344 6.397,-3.344 h 9.7 c 0.751,0 2.213,1.12 3.18,1.86 1.415,1.084 2.637,2.021 4.031,2.021 h 10.25 c 2.64,0 3.82,1.432 3.82,2.85 0,0.712 -0.292,1.378 -0.822,1.875 -0.681,0.638 -1.717,0.975 -2.998,0.975 H 48.06 v 4 h 15.521 c 5.134,0 7.82,-3.445 7.82,-6.85 0,-0.488 -0.062,-0.977 -0.172,-1.457 l 6.854,-3.558 c 0.368,-0.191 0.667,-0.492 0.856,-0.861 2.256,-4.388 3.939,-6.147 6.435,-6.727 2.052,-0.476 3.81,-0.084 4.856,0.498 -2.251,4.42 -7.528,12.324 -8.739,13.682 z"
           inkscape:connector-curvature="0"
           style="fill:#f07b3f;fill-opacity:0.94117647" />
        <rect
           id="rect817"
           height="5.4879999"
           width="4"
           transform="matrix(-0.7072,0.707,-0.707,-0.7072,83.95,111.163)"
           y="70.220001"
           x="16.958"
           style="fill:#f07b3f;fill-opacity:0.94117647" />
      </g>
    </g>
  </g>
</svg>
