<?xml version="1.0" encoding="UTF-8" standalone="no"?>
<!-- Created with Inkscape (http://www.inkscape.org/) -->

<svg
   xmlns:dc="http://purl.org/dc/elements/1.1/"
   xmlns:cc="http://creativecommons.org/ns#"
   xmlns:rdf="http://www.w3.org/1999/02/22-rdf-syntax-ns#"
   xmlns:svg="http://www.w3.org/2000/svg"
   xmlns="http://www.w3.org/2000/svg"
   xmlns:xlink="http://www.w3.org/1999/xlink"
   xmlns:sodipodi="http://sodipodi.sourceforge.net/DTD/sodipodi-0.dtd"
   xmlns:inkscape="http://www.inkscape.org/namespaces/inkscape"
   width="17.607771mm"
   height="17.875mm"
   viewBox="0 0 17.607771 17.875"
   version="1.1"
   id="svg8"
   inkscape:version="0.92.3 (d244b95, 2018-08-02)"
   sodipodi:docname="start-finish-tool-colored.svg"
   inkscape:export-filename="/home/rf/Documents/Webdesign-2018/oslo-trail-klubb/graphic-resources/icons/start-finish-tool.png"
   inkscape:export-xdpi="96"
   inkscape:export-ydpi="96">
  <defs
     id="defs2">
    <linearGradient
       inkscape:collect="always"
       id="linearGradient966">
      <stop
         style="stop-color:#f07b3f;stop-opacity:1;"
         offset="0"
         id="stop962" />
      <stop
         style="stop-color:#ea5455;stop-opacity:1"
         offset="1"
         id="stop964" />
    </linearGradient>
    <linearGradient
       inkscape:collect="always"
       xlink:href="#linearGradient966"
       id="linearGradient968"
       x1="58.919998"
       y1="35.630001"
       x2="0.25358406"
       y2="35.630001"
       gradientUnits="userSpaceOnUse" />
  </defs>
  <sodipodi:namedview
     id="base"
     pagecolor="#ffffff"
     bordercolor="#666666"
     borderopacity="1.0"
     inkscape:pageopacity="0.0"
     inkscape:pageshadow="2"
     inkscape:zoom="7.9195959"
     inkscape:cx="37.685385"
     inkscape:cy="33.308552"
     inkscape:document-units="mm"
     inkscape:current-layer="g922"
     showgrid="false"
     fit-margin-top="1"
     fit-margin-left="1"
     fit-margin-right="1"
     fit-margin-bottom="1"
     inkscape:window-width="1280"
     inkscape:window-height="996"
     inkscape:window-x="1366"
     inkscape:window-y="0"
     inkscape:window-maximized="1" />
  <metadata
     id="metadata5">
    <rdf:RDF>
      <cc:Work
         rdf:about="">
        <dc:format>image/svg+xml</dc:format>
        <dc:type
           rdf:resource="http://purl.org/dc/dcmitype/StillImage" />
        <dc:title></dc:title>
      </cc:Work>
    </rdf:RDF>
  </metadata>
  <g
     inkscape:label="Layer 1"
     inkscape:groupmode="layer"
     id="layer1"
     transform="translate(-80.398496,-72.10083)">
    <g
       id="g922"
       transform="matrix(0.26458333,0,0,0.26458333,81.40048,73.10083)">
      <g
         id="g875"
         style="fill:url(#linearGradient968);fill-opacity:1">
        <path
           id="path815"
           d="M 20.51,28.98 C 18.24,26.42 15.21,25 11.98,25 c -3.23,0 -6.26,1.41 -8.53,3.98 -4.61,5.21 -4.61,13.69 0,18.9 l 8.53,9.63 8.53,-9.63 c 4.62,-5.21 4.62,-13.69 0,-18.9 z M 19.02,46.55 11.99,54.49 4.96,46.55 C 0.99,42.07 0.99,34.78 4.96,30.3 6.84,28.17 9.34,27 11.99,27 c 2.65,0 5.14,1.17 7.03,3.3 3.96,4.48 3.96,11.77 0,16.25 z"
           inkscape:connector-curvature="0"
           style="fill:url(#linearGradient968);fill-opacity:1" />
        <path
           id="path817"
           d="M 48.24,24.51 54.7,17.22 C 58.18,13.3 58.18,6.92 54.7,3 52.98,1.06 50.68,0 48.24,0 45.79,0 43.5,1.07 41.78,3 38.3,6.92 38.3,13.3 41.78,17.22 Z M 43.27,4.33 C 44.61,2.83 46.37,2 48.24,2 c 1.87,0 3.63,0.83 4.97,2.33 2.83,3.19 2.83,8.37 0,11.56 l -4.97,5.6 -4.97,-5.6 c -2.83,-3.18 -2.83,-8.37 0,-11.56 z"
           inkscape:connector-curvature="0"
           style="fill:url(#linearGradient968);fill-opacity:1" />
        <path
           id="path819"
           d="m 31.49,31 c -0.43,0 -0.85,-0.08 -1.25,-0.23 -0.51,-0.2 -1.09,0.06 -1.29,0.58 -0.2,0.52 0.06,1.09 0.58,1.29 0.63,0.24 1.29,0.36 1.96,0.36 h 0.36 c 0.55,0 1,-0.45 1,-1 0,-0.55 -0.45,-1 -1,-1 z"
           inkscape:connector-curvature="0"
           style="fill:url(#linearGradient968);fill-opacity:1" />
        <path
           id="path821"
           d="m 29.11,24.68 c 0.18,0 0.36,-0.05 0.53,-0.15 0.44,-0.28 0.93,-0.45 1.45,-0.5 0.55,-0.06 0.95,-0.55 0.88,-1.1 -0.07,-0.55 -0.55,-0.94 -1.1,-0.88 -0.82,0.09 -1.59,0.36 -2.29,0.79 -0.47,0.29 -0.61,0.91 -0.32,1.38 0.19,0.29 0.52,0.46 0.85,0.46 z"
           inkscape:connector-curvature="0"
           style="fill:url(#linearGradient968);fill-opacity:1" />
        <path
           id="path823"
           d="m 34.99,24 h 2 c 0.55,0 1,-0.45 1,-1 0,-0.55 -0.45,-1 -1,-1 h -2 c -0.55,0 -1,0.45 -1,1 0,0.55 0.44,1 1,1 z"
           inkscape:connector-curvature="0"
           style="fill:url(#linearGradient968);fill-opacity:1" />
        <path
           id="path825"
           d="m 17.56,58 h -2 c -0.55,0 -1,0.45 -1,1 0,0.55 0.45,1 1,1 h 2 c 0.55,0 1,-0.45 1,-1 0,-0.55 -0.45,-1 -1,-1 z"
           inkscape:connector-curvature="0"
           style="fill:url(#linearGradient968);fill-opacity:1" />
        <path
           id="path827"
           d="m 47.27,40 c -0.55,0 -1,0.45 -1,1 0,0.55 0.45,1 1,1 h 2 c 0.55,0 1,-0.45 1,-1 0,-0.55 -0.45,-1 -1,-1 z"
           inkscape:connector-curvature="0"
           style="fill:url(#linearGradient968);fill-opacity:1" />
        <path
           id="path829"
           d="m 42.99,24 c 0.55,0 1,-0.45 1,-1 0,-0.55 -0.45,-1 -1,-1 h -2 c -0.55,0 -1,0.45 -1,1 0,0.55 0.45,1 1,1 z"
           inkscape:connector-curvature="0"
           style="fill:url(#linearGradient968);fill-opacity:1" />
        <path
           id="path831"
           d="m 41.27,42 h 2 c 0.55,0 1,-0.45 1,-1 0,-0.55 -0.45,-1 -1,-1 h -2 c -0.55,0 -1,0.45 -1,1 0,0.55 0.45,1 1,1 z"
           inkscape:connector-curvature="0"
           style="fill:url(#linearGradient968);fill-opacity:1" />
        <path
           id="path833"
           d="m 35.49,40 c -0.09,0 -0.17,0 -0.26,0.01 -0.55,0.02 -0.98,0.49 -0.96,1.04 0.02,0.54 0.46,0.96 1,0.96 0.01,0 0.03,0 0.04,0 h 1.96 c 0.55,0 1,-0.45 1,-1 0,-0.55 -0.45,-1 -1,-1 h -1.78 z"
           inkscape:connector-curvature="0"
           style="fill:url(#linearGradient968);fill-opacity:1" />
        <path
           id="path835"
           d="m 50.84,32 c 0,-0.55 -0.45,-1 -1,-1 h -2 c -0.55,0 -1,0.45 -1,1 0,0.55 0.45,1 1,1 h 2 c 0.56,0 1,-0.45 1,-1 z"
           inkscape:connector-curvature="0"
           style="fill:url(#linearGradient968);fill-opacity:1" />
        <path
           id="path837"
           d="m 35.84,31 c -0.55,0 -1,0.45 -1,1 0,0.55 0.45,1 1,1 h 2 c 0.55,0 1,-0.45 1,-1 0,-0.55 -0.45,-1 -1,-1 z"
           inkscape:connector-curvature="0"
           style="fill:url(#linearGradient968);fill-opacity:1" />
        <path
           id="path839"
           d="m 44.84,32 c 0,-0.55 -0.45,-1 -1,-1 h -2 c -0.55,0 -1,0.45 -1,1 0,0.55 0.45,1 1,1 h 2 c 0.56,0 1,-0.45 1,-1 z"
           inkscape:connector-curvature="0"
           style="fill:url(#linearGradient968);fill-opacity:1" />
        <path
           id="path841"
           d="m 32.05,44.84 c 0.1,-0.51 0.31,-0.99 0.62,-1.41 0.33,-0.44 0.23,-1.07 -0.21,-1.4 -0.45,-0.33 -1.07,-0.23 -1.4,0.21 -0.49,0.67 -0.82,1.41 -0.97,2.22 -0.1,0.54 0.25,1.07 0.79,1.17 0.06,0.01 0.13,0.02 0.19,0.02 0.47,0 0.89,-0.33 0.98,-0.81 z"
           inkscape:connector-curvature="0"
           style="fill:url(#linearGradient968);fill-opacity:1" />
        <path
           id="path843"
           d="m 52.1,54.52 c -0.54,-0.12 -1.07,0.22 -1.2,0.76 -0.12,0.51 -0.34,0.98 -0.66,1.39 -0.34,0.43 -0.27,1.06 0.17,1.4 0.18,0.14 0.4,0.21 0.62,0.21 0.3,0 0.59,-0.13 0.79,-0.38 0.5,-0.64 0.86,-1.4 1.04,-2.19 0.11,-0.54 -0.22,-1.07 -0.76,-1.19 z"
           inkscape:connector-curvature="0"
           style="fill:url(#linearGradient968);fill-opacity:1" />
        <path
           id="path845"
           d="m 41.56,58 h -2 c -0.55,0 -1,0.45 -1,1 0,0.55 0.45,1 1,1 h 2 c 0.55,0 1,-0.45 1,-1 0,-0.55 -0.45,-1 -1,-1 z"
           inkscape:connector-curvature="0"
           style="fill:url(#linearGradient968);fill-opacity:1" />
        <path
           id="path847"
           d="m 46.56,50 c 0,-0.55 -0.45,-1 -1,-1 h -2 c -0.55,0 -1,0.45 -1,1 0,0.55 0.45,1 1,1 h 2 c 0.55,0 1,-0.45 1,-1 z"
           inkscape:connector-curvature="0"
           style="fill:url(#linearGradient968);fill-opacity:1" />
        <path
           id="path849"
           d="m 51.02,52.72 c 0.22,0 0.43,-0.07 0.62,-0.21 0.43,-0.34 0.51,-0.97 0.17,-1.4 -0.5,-0.64 -1.15,-1.17 -1.88,-1.53 -0.5,-0.25 -1.09,-0.04 -1.34,0.45 -0.25,0.5 -0.04,1.09 0.45,1.34 0.46,0.23 0.88,0.57 1.2,0.97 0.19,0.25 0.49,0.38 0.78,0.38 z"
           inkscape:connector-curvature="0"
           style="fill:url(#linearGradient968);fill-opacity:1" />
        <path
           id="path851"
           d="M 54.84,39.73 C 54.41,39.91 53.96,40 53.49,40 h -0.21 c -0.55,0 -1,0.45 -1,1 0,0.55 0.45,1 1,1 h 0.21 c 0.74,0 1.45,-0.14 2.12,-0.43 0.51,-0.21 0.75,-0.8 0.54,-1.31 -0.22,-0.51 -0.81,-0.75 -1.31,-0.53 z"
           inkscape:connector-curvature="0"
           style="fill:url(#linearGradient968);fill-opacity:1" />
        <path
           id="path853"
           d="m 58.92,35.63 c -0.09,-0.55 -0.6,-0.92 -1.15,-0.83 -0.55,0.09 -0.92,0.6 -0.83,1.15 0.03,0.18 0.04,0.36 0.04,0.55 0,0.34 -0.05,0.67 -0.14,0.99 -0.16,0.53 0.15,1.09 0.68,1.24 0.09,0.03 0.19,0.04 0.28,0.04 0.43,0 0.83,-0.28 0.96,-0.72 0.15,-0.5 0.22,-1.02 0.22,-1.54 0.01,-0.29 -0.01,-0.59 -0.06,-0.88 z"
           inkscape:connector-curvature="0"
           style="fill:url(#linearGradient968);fill-opacity:1" />
        <path
           id="path855"
           d="m 56.24,31.74 c -0.71,-0.41 -1.49,-0.66 -2.32,-0.72 -0.55,-0.04 -1.03,0.37 -1.08,0.92 -0.04,0.55 0.37,1.03 0.92,1.08 0.52,0.04 1.02,0.2 1.47,0.46 0.16,0.09 0.33,0.13 0.5,0.13 0.34,0 0.68,-0.18 0.87,-0.5 0.28,-0.48 0.12,-1.09 -0.36,-1.37 z"
           inkscape:connector-curvature="0"
           style="fill:url(#linearGradient968);fill-opacity:1" />
        <path
           id="path857"
           d="m 47.49,58 h -1.93 c -0.55,0 -1,0.45 -1,1 0,0.55 0.45,1 1,1 h 1.97 l 0.03,-1 v 1 c 0.55,0 0.96,-0.45 0.96,-1 0,-0.55 -0.48,-1 -1.03,-1 z"
           inkscape:connector-curvature="0"
           style="fill:url(#linearGradient968);fill-opacity:1" />
        <path
           id="path859"
           d="m 23.56,58 h -2 c -0.55,0 -1,0.45 -1,1 0,0.55 0.45,1 1,1 h 2 c 0.55,0 1,-0.45 1,-1 0,-0.55 -0.45,-1 -1,-1 z"
           inkscape:connector-curvature="0"
           style="fill:url(#linearGradient968);fill-opacity:1" />
        <path
           id="path861"
           d="m 29.56,58 h -2 c -0.55,0 -1,0.45 -1,1 0,0.55 0.45,1 1,1 h 2 c 0.55,0 1,-0.45 1,-1 0,-0.55 -0.45,-1 -1,-1 z"
           inkscape:connector-curvature="0"
           style="fill:url(#linearGradient968);fill-opacity:1" />
        <path
           id="path863"
           d="m 27.52,29.86 c 0.52,-0.17 0.81,-0.74 0.64,-1.26 -0.12,-0.35 -0.17,-0.72 -0.17,-1.09 0,-0.15 0.01,-0.3 0.03,-0.45 0.07,-0.55 -0.32,-1.05 -0.87,-1.12 -0.57,-0.06 -1.05,0.32 -1.12,0.87 -0.03,0.23 -0.04,0.46 -0.04,0.69 0,0.59 0.09,1.17 0.27,1.72 0.14,0.42 0.53,0.69 0.95,0.69 0.1,0 0.21,-0.02 0.31,-0.05 z"
           inkscape:connector-curvature="0"
           style="fill:url(#linearGradient968);fill-opacity:1" />
        <path
           id="path865"
           d="m 33.62,50.59 c 0.38,0 0.74,-0.22 0.91,-0.58 0.23,-0.5 0.01,-1.1 -0.49,-1.33 -0.47,-0.21 -0.89,-0.54 -1.23,-0.94 -0.36,-0.42 -0.99,-0.48 -1.41,-0.12 -0.42,0.36 -0.48,0.99 -0.12,1.41 0.52,0.62 1.19,1.13 1.93,1.47 0.13,0.06 0.27,0.09 0.41,0.09 z"
           inkscape:connector-curvature="0"
           style="fill:url(#linearGradient968);fill-opacity:1" />
        <path
           id="path867"
           d="m 35.56,58 h -2 c -0.55,0 -1,0.45 -1,1 0,0.55 0.45,1 1,1 h 2 c 0.55,0 1,-0.45 1,-1 0,-0.55 -0.45,-1 -1,-1 z"
           inkscape:connector-curvature="0"
           style="fill:url(#linearGradient968);fill-opacity:1" />
        <path
           id="path869"
           d="m 40.56,50 c 0,-0.55 -0.45,-1 -1,-1 h -2 c -0.55,0 -1,0.45 -1,1 0,0.55 0.45,1 1,1 h 2 c 0.55,0 1,-0.45 1,-1 z"
           inkscape:connector-curvature="0"
           style="fill:url(#linearGradient968);fill-opacity:1" />
        <path
           id="path871"
           d="m 48.49,15 c 3.03,0 5.5,-2.47 5.5,-5.5 0,-3.03 -2.47,-5.5 -5.5,-5.5 -3.03,0 -5.5,2.47 -5.5,5.5 0,3.03 2.46,5.5 5.5,5.5 z m 0,-9 c 1.93,0 3.5,1.57 3.5,3.5 0,1.93 -1.57,3.5 -3.5,3.5 -1.93,0 -3.5,-1.57 -3.5,-3.5 0,-1.93 1.57,-3.5 3.5,-3.5 z"
           inkscape:connector-curvature="0"
           style="fill:url(#linearGradient968);fill-opacity:1" />
        <path
           id="path873"
           d="m 11.99,31 c -3.31,0 -6,2.69 -6,6 0,3.31 2.69,6 6,6 3.31,0 6,-2.69 6,-6 0,-3.31 -2.69,-6 -6,-6 z m 0,10 c -2.21,0 -4,-1.79 -4,-4 0,-2.21 1.79,-4 4,-4 2.21,0 4,1.79 4,4 0,2.21 -1.8,4 -4,4 z"
           inkscape:connector-curvature="0"
           style="fill:url(#linearGradient968);fill-opacity:1" />
      </g>
    </g>
  </g>
</svg>
