<?xml version="1.0" encoding="UTF-8" standalone="no"?>
<!-- Created with Inkscape (http://www.inkscape.org/) -->

<svg
   xmlns:dc="http://purl.org/dc/elements/1.1/"
   xmlns:cc="http://creativecommons.org/ns#"
   xmlns:rdf="http://www.w3.org/1999/02/22-rdf-syntax-ns#"
   xmlns:svg="http://www.w3.org/2000/svg"
   xmlns="http://www.w3.org/2000/svg"
   xmlns:sodipodi="http://sodipodi.sourceforge.net/DTD/sodipodi-0.dtd"
   xmlns:inkscape="http://www.inkscape.org/namespaces/inkscape"
   width="16.557375mm"
   height="16.025562mm"
   viewBox="0 0 16.557375 16.025562"
   version="1.1"
   id="svg8"
   inkscape:version="0.92.3 (d244b95, 2018-08-02)"
   sodipodi:docname="trails-trials.svg"
   inkscape:export-filename="/home/rf/Documents/Webdesign-2018/oslo-trail-klubb/graphic-resources/icons/best-routes-2.png"
   inkscape:export-xdpi="96"
   inkscape:export-ydpi="96">
  <defs
     id="defs2">
    <style
       id="style911">.cls-1{fill:none;stroke:#000;stroke-linecap:round;stroke-linejoin:round;stroke-width:2px;}</style>
  </defs>
  <sodipodi:namedview
     id="base"
     pagecolor="#ffffff"
     bordercolor="#666666"
     borderopacity="1.0"
     inkscape:pageopacity="0.0"
     inkscape:pageshadow="2"
     inkscape:zoom="1.979899"
     inkscape:cx="-21.007778"
     inkscape:cy="-99.736259"
     inkscape:document-units="mm"
     inkscape:current-layer="g1067"
     showgrid="false"
     fit-margin-top="1"
     fit-margin-left="1"
     fit-margin-right="1"
     fit-margin-bottom="1"
     inkscape:window-width="1280"
     inkscape:window-height="996"
     inkscape:window-x="1366"
     inkscape:window-y="0"
     inkscape:window-maximized="1" />
  <metadata
     id="metadata5">
    <rdf:RDF>
      <cc:Work
         rdf:about="">
        <dc:format>image/svg+xml</dc:format>
        <dc:type
           rdf:resource="http://purl.org/dc/dcmitype/StillImage" />
        <dc:title></dc:title>
      </cc:Work>
    </rdf:RDF>
  </metadata>
  <g
     inkscape:label="Layer 1"
     inkscape:groupmode="layer"
     id="layer1"
     transform="translate(-80.593822,-60.340757)">
    <g
       id="g838"
       transform="matrix(0.26458333,0,0,0.26458333,78.177366,69.588467)" />
    <g
       id="g890"
       transform="matrix(0.26458333,0,0,0.26458333,72.609998,59.246424)">
      <g
         id="g990"
         transform="translate(25.882738,21.586408)">
        <g
           id="g1067"
           transform="translate(8.0718733,-13.67082)">
          <g
             id="g1037"
             style="fill:#f07b3f;fill-opacity:0.94117647">
            <path
               id="path1011"
               d="m 51.69,22.01 h -10.9 c -0.55,0 -1,0.45 -1,1 0,0.55 0.45,1 1,1 h 9.1 l 2.9,27 H 2.27 l 3.4,-27 h 9.12 c 0.55,0 1,-0.45 1,-1 0,-0.55 -0.45,-1 -1,-1 H 3.91 L 0,53.01 h 55.02 z"
               inkscape:connector-curvature="0"
               style="fill:#f07b3f;fill-opacity:0.94117647" />
            <path
               id="path1013"
               d="m 26.65,37.96 c -0.15,0.09 -0.3,0.16 -0.44,0.25 -0.22,0.14 -0.43,0.29 -0.65,0.45 -0.45,0.33 -0.54,0.95 -0.21,1.4 0.2,0.27 0.5,0.41 0.81,0.41 0.21,0 0.41,-0.06 0.59,-0.19 0.18,-0.13 0.36,-0.26 0.55,-0.38 0.32,-0.21 0.66,-0.4 1.01,-0.58 0.47,-0.24 0.66,-0.79 0.46,-1.27 0.01,-0.01 0.02,-0.01 0.03,-0.02 1.81,-1.92 7.91,-9.1 10.43,-21.06 0.51,-2.43 0.63,-4.75 0.34,-6.92 C 38.71,3.48 34.62,0 27.75,0 20.89,0 16.8,3.48 15.94,10.05 c -0.28,2.17 -0.17,4.49 0.34,6.92 2.5,11.84 8.5,19 10.37,20.99 z M 17.92,10.31 C 18.66,4.72 21.87,2 27.75,2 c 5.88,0 9.1,2.72 9.83,8.31 0.25,1.94 0.15,4.04 -0.32,6.25 C 35,27.31 29.59,34.13 27.75,36.2 25.91,34.13 20.5,27.3 18.24,16.55 c -0.46,-2.2 -0.57,-4.3 -0.32,-6.24 z"
               inkscape:connector-curvature="0"
               style="fill:#f07b3f;fill-opacity:0.94117647" />
            <path
               id="path1015"
               d="m 27.75,18.92 c 4.05,0 7.35,-3.29 7.35,-7.35 0,-4.06 -3.29,-7.35 -7.35,-7.35 -4.06,0 -7.35,3.29 -7.35,7.35 0,4.06 3.3,7.35 7.35,7.35 z m 0,-12.69 c 2.95,0 5.35,2.4 5.35,5.35 0,2.95 -2.4,5.35 -5.35,5.35 -2.95,0 -5.35,-2.4 -5.35,-5.35 0,-2.95 2.41,-5.35 5.35,-5.35 z"
               inkscape:connector-curvature="0"
               style="fill:#f07b3f;fill-opacity:0.94117647" />
            <path
               id="path1017"
               d="m 36.6,36.57 c 0.02,0.54 0.47,0.96 1,0.96 0.01,0 0.03,0 0.04,0 l 2,-0.08 c 0.55,-0.03 0.98,-0.49 0.95,-1.04 -0.03,-0.55 -0.54,-0.98 -1.04,-0.95 l -2,0.08 C 37,35.55 36.58,36.02 36.6,36.57 Z"
               inkscape:connector-curvature="0"
               style="fill:#f07b3f;fill-opacity:0.94117647" />
            <path
               id="path1019"
               d="m 46.69,31.76 c -0.16,0.53 0.13,1.09 0.66,1.25 0.1,0.03 0.2,0.04 0.29,0.04 0.43,0 0.82,-0.28 0.96,-0.71 0.1,-0.32 0.16,-0.64 0.18,-0.96 0,-0.08 0.01,-0.17 0.01,-0.25 0,-0.47 -0.09,-0.94 -0.25,-1.39 -0.19,-0.52 -0.77,-0.78 -1.29,-0.59 -0.52,0.19 -0.78,0.77 -0.59,1.29 0.09,0.23 0.13,0.47 0.13,0.7 v 0.12 c -0.02,0.16 -0.05,0.33 -0.1,0.5 z"
               inkscape:connector-curvature="0"
               style="fill:#f07b3f;fill-opacity:0.94117647" />
            <path
               id="path1021"
               d="m 31.43,36.17 c -0.54,0.11 -0.88,0.65 -0.77,1.19 0.1,0.47 0.51,0.79 0.98,0.79 0.07,0 0.14,-0.01 0.21,-0.02 0.59,-0.12 1.22,-0.23 1.89,-0.31 0.55,-0.07 0.94,-0.57 0.87,-1.12 -0.07,-0.55 -0.56,-0.95 -1.12,-0.87 -0.73,0.09 -1.42,0.2 -2.06,0.34 z"
               inkscape:connector-curvature="0"
               style="fill:#f07b3f;fill-opacity:0.94117647" />
            <path
               id="path1023"
               d="m 44.72,34.58 c -0.34,0.24 -0.78,0.41 -1.35,0.53 -0.54,0.11 -0.89,0.64 -0.78,1.18 0.1,0.47 0.51,0.8 0.98,0.8 0.07,0 0.13,-0.01 0.2,-0.02 0.84,-0.17 1.53,-0.45 2.1,-0.85 L 46,36.12 c 0.44,-0.33 0.53,-0.96 0.19,-1.4 -0.33,-0.44 -0.96,-0.53 -1.4,-0.19 z"
               inkscape:connector-curvature="0"
               style="fill:#f07b3f;fill-opacity:0.94117647" />
            <path
               id="path1025"
               d="M 8.86,42.4 C 9,41.87 8.69,41.32 8.16,41.17 7.63,41.02 7.08,41.34 6.93,41.87 6.8,42.33 6.73,42.81 6.71,43.28 6.7,43.4 6.7,43.51 6.7,43.63 c 0,0.2 0.01,0.39 0.03,0.59 0.05,0.51 0.49,0.9 0.99,0.9 0.03,0 0.07,0 0.1,0 0.55,-0.06 0.95,-0.55 0.89,-1.1 C 8.7,43.89 8.7,43.75 8.7,43.63 c 0,-0.08 0,-0.17 0.01,-0.25 0.01,-0.32 0.06,-0.66 0.15,-0.98 z"
               inkscape:connector-curvature="0"
               style="fill:#f07b3f;fill-opacity:0.94117647" />
            <path
               id="path1027"
               d="m 22.43,41.17 c -0.51,0.39 -1.04,0.76 -1.58,1.11 -0.46,0.3 -0.59,0.92 -0.29,1.38 0.19,0.29 0.51,0.46 0.84,0.46 0.19,0 0.38,-0.05 0.54,-0.16 0.57,-0.37 1.14,-0.77 1.7,-1.19 0.44,-0.33 0.53,-0.96 0.2,-1.4 -0.34,-0.44 -0.96,-0.53 -1.41,-0.2 z"
               inkscape:connector-curvature="0"
               style="fill:#f07b3f;fill-opacity:0.94117647" />
            <path
               id="path1029"
               d="m 10.2,40 c 0.16,0 0.33,-0.04 0.48,-0.12 0.29,-0.16 0.59,-0.25 0.91,-0.29 0.13,-0.02 0.27,-0.02 0.41,0 0.56,0.07 1.05,-0.31 1.12,-0.86 0.07,-0.55 -0.31,-1.05 -0.86,-1.12 -0.3,-0.04 -0.6,-0.04 -0.89,-0.01 -0.57,0.06 -1.13,0.24 -1.65,0.52 -0.49,0.26 -0.66,0.87 -0.4,1.36 C 9.5,39.81 9.85,40 10.2,40 Z"
               inkscape:connector-curvature="0"
               style="fill:#f07b3f;fill-opacity:0.94117647" />
            <path
               id="path1031"
               d="m 9.99,47.84 c 0.22,0.06 0.44,0.1 0.65,0.12 0.26,0.03 0.51,0.05 0.77,0.05 0.31,0 0.63,-0.02 0.94,-0.06 0.55,-0.07 0.94,-0.57 0.87,-1.12 -0.07,-0.55 -0.57,-0.93 -1.12,-0.87 -0.4,0.05 -0.81,0.06 -1.22,0.01 -0.13,-0.02 -0.26,-0.04 -0.39,-0.08 -0.54,-0.14 -1.08,0.18 -1.22,0.72 -0.13,0.54 0.19,1.09 0.72,1.23 z"
               inkscape:connector-curvature="0"
               style="fill:#f07b3f;fill-opacity:0.94117647" />
            <path
               id="path1033"
               d="m 17.48,44.16 c -0.59,0.28 -1.18,0.53 -1.77,0.76 -0.51,0.2 -0.77,0.78 -0.57,1.29 0.15,0.4 0.53,0.64 0.93,0.64 0.12,0 0.24,-0.02 0.36,-0.07 0.63,-0.25 1.28,-0.52 1.9,-0.81 0.5,-0.23 0.71,-0.83 0.48,-1.33 -0.23,-0.5 -0.83,-0.72 -1.33,-0.48 z"
               inkscape:connector-curvature="0"
               style="fill:#f07b3f;fill-opacity:0.94117647" />
            <path
               id="path1035"
               d="m 44.7,26.81 c -0.79,-0.11 -1.6,-0.04 -2.39,0.18 -0.53,0.15 -0.84,0.7 -0.69,1.23 0.12,0.44 0.53,0.73 0.96,0.73 0.09,0 0.18,-0.01 0.27,-0.04 0.52,-0.15 1.05,-0.19 1.58,-0.12 0.56,0.07 1.05,-0.31 1.12,-0.86 0.08,-0.55 -0.3,-1.05 -0.85,-1.12 z"
               inkscape:connector-curvature="0"
               style="fill:#f07b3f;fill-opacity:0.94117647" />
          </g>
        </g>
      </g>
    </g>
  </g>
</svg>
